<?xml version="1.0" standalone="no"?>
<!DOCTYPE svg PUBLIC "-//W3C//DTD SVG 1.1//EN" "http://www.w3.org/Graphics/SVG/1.1/DTD/svg11.dtd" >
<svg xmlns="http://www.w3.org/2000/svg">
<metadata>Generated by IcoMoon</metadata>
<defs>
<font id="kico" horiz-adv-x="1024">
<font-face units-per-em="1024" ascent="960" descent="-64" />
<missing-glyph horiz-adv-x="1024" />
<glyph unicode="&#x20;" horiz-adv-x="512" d="" />
<glyph unicode="&#xe900;" glyph-name="fav" d="M94.384 424.727c-44.222 49.409-71.112 114.655-71.112 186.182 0 154.238 125.035 279.273 279.273 279.273 83.411 0 158.282-36.568 209.455-94.546 51.173 57.978 126.043 94.546 209.455 94.546 154.238 0 279.273-125.035 279.273-279.273 0-71.527-26.89-136.773-71.112-186.182h1.293l-418.909-442.182-418.909 442.182h1.293zM510.707 424.727h2.587c-0.433 0.484-0.864 0.969-1.293 1.455-0.429-0.487-0.861-0.972-1.293-1.455v0z" />
<glyph unicode="&#xe901;" glyph-name="local" d="M232.243 261.334c-154.506 154.506-154.506 405.009 0 559.514s405.009 154.506 559.514 0c154.506-154.506 154.506-405.009 0-559.514l-279.757-279.757-279.757 279.757zM512 409.212c84.974 0 153.859 68.885 153.859 153.859s-68.885 153.859-153.859 153.859c-84.974 0-153.859-68.885-153.859-153.859s68.885-153.859 153.859-153.859z" />
<glyph unicode="&#xe902;" glyph-name="phone" d="M95.916 521.264l480.762-480.762c79.982-79.982 203.755-96.171 301.618-39.451l87.386 50.649c33.361 19.336 44.731 62.055 25.395 95.416-3.040 5.245-6.75 10.071-11.037 14.358l-118.939 118.939c-24.906 24.906-64.464 27.36-92.258 5.723l-30.096-23.43c-44.985-35.021-109.012-31.049-149.324 9.263l-242.618 242.618c-40.312 40.312-44.284 104.339-9.263 149.324l23.43 30.096c21.637 27.794 19.183 67.352-5.723 92.258l-122.969 122.969c-27.266 27.266-71.472 27.266-98.738 0-3.245-3.245-6.162-6.802-8.709-10.619l-57.669-86.433c-61-91.426-48.965-213.202 28.751-290.919z" />
<glyph unicode="&#xe903;" glyph-name="ok" d="M422.954 196.459l-220.881 193.28 61.3 70.028 151.482-132.538 353.303 396.148 69.492-61.952-414.697-464.966zM511.995 936.718c-269.917 0-488.727-218.81-488.727-488.727s218.81-488.727 488.727-488.727c269.917 0 488.727 218.81 488.727 488.727s-218.81 488.727-488.727 488.727v0z" />
<glyph unicode="&#xe904;" glyph-name="alpay" d="M884.364 913.455h-744.727c-51.413 0-93.091-41.678-93.091-93.091v0-744.727c0-51.413 41.678-93.091 93.091-93.091v0h744.727c51.413 0 93.091 41.678 93.091 93.091v0 30.72c-94.16 64.943-205.366 133.055-320.116 195.476l-20.132 10.022c-74.711-93.326-184.861-155.593-309.738-166.286l-1.652-0.114c-50.502-1.862-209.455 29.091-209.455 139.636s48.407 197.818 232.727 186.182c88.061-11.010 167.88-30.852 243.676-58.976l-7.457 2.424c18.188 36.363 33.046 78.606 42.433 122.871l0.621 3.5h-372.364v46.545h186.182v46.545h-209.455v46.545h209.455v116.364h116.364v-116.364h232.727v-46.545h-232.727v-46.545h209.455s-10.938-81.222-85.411-206.895c155.229-56.785 294.865-118.924 294.865-118.924v558.545c0 51.413-41.678 93.091-93.091 93.091v0zM282.531 424.727c-173.149-41.891-117.76-215.273 89.833-186.182 75.097 12.36 138.291 55.303 177.422 115.358l0.614 1.005c-107.055 50.036-208.058 83.549-267.869 69.818z" />
<glyph unicode="&#xe905;" glyph-name="cans" d="M512 913.455c-257.063 0-465.455-208.391-465.455-465.455s208.391-465.455 465.455-465.455c257.063 0 465.455 208.391 465.455 465.455v0c0 257.063-208.391 465.455-465.455 465.455v0zM512 866.909c0.112 0 0.244 0 0.376 0 107.423 0 205.355-40.638 279.261-107.379l-0.365 0.324-591.127-591.127c-66.196 73.769-106.673 171.794-106.673 279.273 0 231.223 187.334 418.692 418.507 418.909h0.021zM512 29.091c-0.112 0-0.244 0-0.376 0-107.423 0-205.355 40.638-279.261 107.379l0.365-0.324 591.127 591.127c66.196-73.769 106.673-171.794 106.673-279.273 0-231.223-187.334-418.692-418.507-418.909h-0.021z" />
<glyph unicode="&#xe906;" glyph-name="car-s" d="M237.382 382.836c97.745 0 176.873-72.145 188.509-167.564h62.836v581.818c0 25.6-20.945 46.545-46.545 46.545h-349.091c-39.564 0-69.818-30.255-69.818-69.818v-512c0-20.945 9.309-39.564 23.273-51.2 9.309 95.418 90.764 172.218 190.836 172.218zM381.673 192c0-79.69-64.601-144.291-144.291-144.291s-144.291 64.601-144.291 144.291c0 79.69 64.601 144.291 144.291 144.291s144.291-64.601 144.291-144.291zM896 192c0-79.69-64.601-144.291-144.291-144.291s-144.291 64.601-144.291 144.291c0 79.69 64.601 144.291 144.291 144.291s144.291-64.601 144.291-144.291zM1000.727 261.818v232.727c0 23.273-11.636 44.218-30.255 55.855l-195.491 139.636c-11.636 9.309-25.6 13.964-39.564 13.964h-200.145v-488.727h25.6c11.636 93.091 93.091 167.564 188.509 167.564 104.727 0 190.836-83.782 190.836-188.509 34.909 4.655 60.509 32.582 60.509 67.491zM698.182 471.273c-25.6 0-46.545 20.945-46.545 46.545v139.636h93.091l188.509-125.673c13.964-9.309 20.945-23.273 20.945-39.564v-20.945h-256z" />
<glyph unicode="&#xe907;" glyph-name="car" d="M93.091 192c0-2.327 0-4.655 0-6.982 0-79.127 65.164-144.291 144.291-144.291s144.291 65.164 144.291 144.291c0 2.327 0 4.655 0 6.982h225.745c0-2.327 0-4.655 0-6.982 0-79.127 65.164-144.291 144.291-144.291s144.291 65.164 144.291 144.291c0 2.327 0 4.655 0 6.982h34.909c39.564 0 69.818 30.255 69.818 69.818v232.727c0 23.273-11.636 44.218-30.255 55.855l-195.491 139.636c-11.636 9.309-25.6 13.964-39.564 13.964h-200.145v69.818c0 39.564-30.255 69.818-69.818 69.818h-372.364c-39.564 0-69.818-30.255-69.818-69.818v-512c0-37.236 30.255-69.818 69.818-69.818zM237.382 87.273c-53.527 0-97.745 44.218-97.745 97.745s44.218 97.745 97.745 97.745 97.745-44.218 97.745-97.745-44.218-97.745-97.745-97.745zM751.709 87.273c-53.527 0-97.745 44.218-97.745 97.745s44.218 97.745 97.745 97.745c53.527 0 97.745-44.218 97.745-97.745s-44.218-97.745-97.745-97.745zM735.418 657.455c4.655 0 9.309-2.327 13.964-4.655l195.491-139.636c6.982-4.655 9.309-11.636 9.309-18.618v-46.545h-279.273c-13.964 0-23.273 9.309-23.273 23.273v186.182h83.782zM605.091 657.455v-186.182c0-39.564 30.255-69.818 69.818-69.818h279.273v-139.636c0-13.964-9.309-23.273-23.273-23.273h-46.545c-20.945 53.527-72.145 90.764-134.982 90.764-60.509 0-114.036-37.236-134.982-90.764h-79.127v418.909h69.818zM69.818 773.818c0 13.964 9.309 23.273 23.273 23.273h372.364c13.964 0 23.273-9.309 23.273-23.273v-535.273h-116.364c0 0 0 0-2.327 0-20.945 53.527-72.145 93.091-134.982 93.091s-114.036-39.564-134.982-93.091c0 0-4.655 0-6.982 0-13.964 0-23.273 9.309-23.273 23.273v512z" />
<glyph unicode="&#xe908;" glyph-name="card-s" d="M1000.727 680.727c0 51.2-41.891 93.091-93.091 93.091h-791.273c-51.2 0-93.091-41.891-93.091-93.091v-46.545h977.455v46.545zM23.273 122.182c0-51.2 41.891-93.091 93.091-93.091h791.273c51.2 0 93.091 41.891 93.091 93.091v302.545h-977.455v-302.545zM349.091 215.273h116.364c13.964 0 23.273-9.309 23.273-23.273s-9.309-23.273-23.273-23.273h-116.364c-13.964 0-23.273 9.309-23.273 23.273s9.309 23.273 23.273 23.273zM162.909 215.273h93.091c13.964 0 23.273-9.309 23.273-23.273s-9.309-23.273-23.273-23.273h-93.091c-13.964 0-23.273 9.309-23.273 23.273s9.309 23.273 23.273 23.273zM23.273 587.636h977.455v-116.364h-977.455v116.364z" />
<glyph unicode="&#xe909;" glyph-name="card" d="M93.091 75.636h791.273c51.2 0 93.091 41.891 93.091 93.091v558.545c0 51.2-41.891 93.091-93.091 93.091h-791.273c-51.2 0-93.091-41.891-93.091-93.091v-558.545c0-51.2 41.891-93.091 93.091-93.091zM930.909 517.818h-884.364v116.364h884.364v-116.364zM884.364 122.182h-791.273c-25.6 0-46.545 20.945-46.545 46.545v302.545h884.364v-302.545c0-25.6-20.945-46.545-46.545-46.545zM93.091 773.818h791.273c25.6 0 46.545-20.945 46.545-46.545v-46.545h-884.364v46.545c0 25.6 20.945 46.545 46.545 46.545zM232.727 285.091h-93.091c-13.964 0-23.273-9.309-23.273-23.273s9.309-23.273 23.273-23.273h93.091c13.964 0 23.273 9.309 23.273 23.273s-9.309 23.273-23.273 23.273zM442.182 285.091h-116.364c-13.964 0-23.273-9.309-23.273-23.273s9.309-23.273 23.273-23.273h116.364c13.964 0 23.273 9.309 23.273 23.273s-9.309 23.273-23.273 23.273z" />
<glyph unicode="&#xe90a;" glyph-name="cart-s" d="M930.909 433.338l51.2 232.727c0.956 4.333 1.504 9.31 1.504 14.414 0 16.527-5.743 31.713-15.341 43.671l0.106-0.137c-13.161 16.238-33.104 26.532-55.453 26.532-0.141 0-0.283 0-0.424-0.001h-724.923l-14.662 75.404c-9.16 49.558-51.676 86.719-103.015 87.504l-0.084 0.001h-6.051c-12.853 0-23.273-10.42-23.273-23.273s10.42-23.273 23.273-23.273v0h6.051c28.783-0.855 52.402-21.918 57.199-49.446l0.052-0.358 87.273-448.931c10.797-60.81 63.255-106.392 126.359-106.392 1.068 0 2.133 0.013 3.195 0.039l-0.157-0.003h610.444c11.622 2.665 20.608 11.651 23.233 23.066l0.040 0.207c-2.665 11.622-11.651 20.608-23.066 23.233l-0.207 0.040h-610.444c-0.752-0.025-1.635-0.039-2.522-0.039-40.986 0-74.943 30.1-80.969 69.401l-0.058 0.456h600.902c0.13-0.001 0.284-0.001 0.437-0.001 33.636 0 61.826 23.32 69.284 54.674l0.097 0.484zM492.684 101.469c0-63.495-51.473-114.967-114.967-114.967s-114.967 51.473-114.967 114.967c0 63.495 51.473 114.967 114.967 114.967s114.967-51.473 114.967-114.967zM893.207 101.702c0-63.495-51.473-114.967-114.967-114.967s-114.967 51.473-114.967 114.967c0 63.495 51.473 114.967 114.967 114.967s114.967-51.473 114.967-114.967z" />
<glyph unicode="&#xe90b;" glyph-name="cart" d="M956.742 700.742c-13.161 16.238-33.104 26.532-55.453 26.532-0.141 0-0.283 0-0.424-0.001h-726.087l-13.498 72.611c-8.298 50.485-50.891 88.761-102.708 90.294l-0.157 0.004h-6.284c-12.853 0-23.273-10.42-23.273-23.273s10.42-23.273 23.273-23.273v0h6.284c29.627-1.214 53.724-23.392 57.909-52.034l0.040-0.33 87.273-465.455c9.521-62.896 63.204-110.546 128.016-110.546 0.158 0 0.316 0 0.474 0.001h552.238c12.853 0 23.273 10.42 23.273 23.273s-10.42 23.273-23.273 23.273v0h-552.262c-0.362-0.006-0.79-0.009-1.219-0.009-41.949 0-76.638 31.089-82.28 71.484l-0.050 0.437-3.956 21.178h605.091c0.13-0.001 0.284-0.001 0.437-0.001 33.636 0 61.826 23.32 69.284 54.674l0.097 0.484 51.2 232.727c0.926 4.264 1.456 9.162 1.456 14.184 0 16.631-5.815 31.904-15.522 43.896l0.103-0.131zM924.858 652.8l-51.2-232.727c-2.239-10.701-11.596-18.623-22.803-18.623-0.165 0-0.33 0.002-0.494 0.005h-607.16c-2.536-0.114-4.92-0.617-7.142-1.449l0.161 0.053-52.596 280.669h717.265c0.128 0.002 0.279 0.004 0.43 0.004 7.691 0 14.561-3.52 19.085-9.037l0.035-0.043c3.043-3.896 4.879-8.863 4.879-14.259 0-1.625-0.167-3.212-0.484-4.743l0.026 0.151zM366.080 168.727c-51.413 0-93.091-41.678-93.091-93.091s41.678-93.091 93.091-93.091c51.413 0 93.091 41.678 93.091 93.091v0c0 51.413-41.678 93.091-93.091 93.091v0zM366.080 29.091c-25.706 0-46.545 20.839-46.545 46.545s20.839 46.545 46.545 46.545c25.706 0 46.545-20.839 46.545-46.545v0c0-25.706-20.839-46.545-46.545-46.545v0zM766.604 168.727c-51.413 0-93.091-41.678-93.091-93.091s41.678-93.091 93.091-93.091c51.413 0 93.091 41.678 93.091 93.091v0c0 51.413-41.678 93.091-93.091 93.091v0zM766.604 29.091c-25.706 0-46.545 20.839-46.545 46.545s20.839 46.545 46.545 46.545c25.706 0 46.545-20.839 46.545-46.545v0c0-25.706-20.839-46.545-46.545-46.545v0z" />
<glyph unicode="&#xe90c;" glyph-name="cash" d="M721.455 494.545c13.964 0 23.273 9.309 23.273 23.273s-9.309 23.273-23.273 23.273h-162.909l134.982 172.218c6.982 9.309 6.982 25.6-4.655 32.582-9.309 6.982-25.6 6.982-32.582-4.655l-144.291-183.855-144.291 183.855c-6.982 9.309-23.273 11.636-32.582 4.655s-11.636-23.273-4.655-32.582l134.982-172.218h-162.909c-13.964 0-23.273-9.309-23.273-23.273s9.309-23.273 23.273-23.273h186.182v-116.364h-186.182c-13.964 0-23.273-9.309-23.273-23.273s9.309-23.273 23.273-23.273h186.182v-162.909c0-13.964 9.309-23.273 23.273-23.273s23.273 9.309 23.273 23.273v162.909h186.182c13.964 0 23.273 9.309 23.273 23.273s-9.309 23.273-23.273 23.273h-186.182v116.364h186.182zM512 948.364c-276.945 0-500.364-223.418-500.364-500.364s223.418-500.364 500.364-500.364 500.364 223.418 500.364 500.364-223.418 500.364-500.364 500.364zM512-5.818c-251.345 0-453.818 202.473-453.818 453.818s202.473 453.818 453.818 453.818 453.818-202.473 453.818-453.818-202.473-453.818-453.818-453.818z" />
<glyph unicode="&#xe90d;" glyph-name="ccoup" d="M512 948.364c-276.945 0-500.364-223.418-500.364-500.364s223.418-500.364 500.364-500.364 500.364 223.418 500.364 500.364-223.418 500.364-500.364 500.364zM512-5.818c-251.345 0-453.818 202.473-453.818 453.818s202.473 453.818 453.818 453.818 453.818-202.473 453.818-453.818-202.473-453.818-453.818-453.818zM414.255 659.782c-13.964 44.218-67.491 83.782-116.364 97.745-51.2 16.291-97.745-2.327-121.018-48.873-30.255-55.855-23.273-116.364 18.618-165.236 16.291-18.618 37.236-34.909 58.182-46.545l-16.291-116.364 321.164-321.164c13.964-13.964 32.582-20.945 48.873-20.945 18.618 0 34.909 6.982 48.873 20.945l197.818 197.818c13.964 13.964 20.945 30.255 20.945 48.873s-6.982 37.236-20.945 48.873l-321.164 321.164-118.691-16.291zM230.4 576c-30.255 34.909-34.909 72.145-11.636 111.709 13.964 25.6 37.236 34.909 69.818 25.6 37.236-9.309 67.491-37.236 79.127-60.509l-93.091-13.964-13.964-93.091c-11.636 9.309-23.273 18.618-30.255 30.255zM828.509 306.036c0-6.982-2.327-11.636-6.982-16.291l-197.818-197.818c-9.309-9.309-23.273-9.309-32.582 0l-304.873 304.873 11.636 81.455c13.964-4.655 25.6-6.982 37.236-6.982 2.327-18.618 11.636-34.909 25.6-48.873 18.618-18.618 41.891-27.927 65.164-27.927s46.545 9.309 65.164 27.927c37.236 37.236 37.236 95.418 0 132.655-34.909 34.909-95.418 34.909-132.655 0-11.636-11.636-18.618-23.273-23.273-37.236-9.309 0-20.945 2.327-34.909 6.982l9.309 74.473 202.473 27.927 304.873-304.873c9.309-4.655 11.636-9.309 11.636-16.291zM393.309 520.145c9.309 9.309 20.945 13.964 32.582 13.964s23.273-4.655 32.582-13.964c18.618-18.618 18.618-46.545 0-65.164s-46.545-18.618-65.164 0c-18.618 18.618-18.618 46.545 0 65.164zM551.564 261.818c6.982 0 11.636 2.327 16.291 6.982l90.764 90.764c9.309 9.309 9.309 23.273 0 32.582s-23.273 9.309-32.582 0l-90.764-90.764c-9.309-9.309-9.309-23.273 0-32.582 4.655-4.655 9.309-6.982 16.291-6.982zM605.091 198.982c4.655-4.655 11.636-6.982 16.291-6.982s11.636 2.327 16.291 6.982l90.764 90.764c9.309 9.309 9.309 23.273 0 32.582s-23.273 9.309-32.582 0l-90.764-90.764c-9.309-9.309-9.309-23.273 0-32.582z" />
<glyph unicode="&#xe90e;" glyph-name="ccoups" d="M512 960c-281.6 0-512-230.4-512-512s230.4-512 512-512 512 230.4 512 512-230.4 512-512 512zM512-17.455c-256 0-465.455 209.455-465.455 465.455s209.455 465.455 465.455 465.455 465.455-209.455 465.455-465.455-209.455-465.455-465.455-465.455zM649.309 729.6c-11.636 4.655-25.6 0-30.255-11.636l-260.655-553.891c-4.655-11.636 0-25.6 11.636-30.255 2.327-2.327 6.982-2.327 9.309-2.327 9.309 0 16.291 4.655 20.945 13.964l260.655 553.891c4.655 11.636 0 25.6-11.636 30.255zM658.618 406.109c-58.182 0-104.727-60.509-104.727-137.309s46.545-137.309 104.727-137.309 104.727 60.509 104.727 137.309c0 76.8-46.545 137.309-104.727 137.309zM658.618 178.036c-32.582 0-58.182 41.891-58.182 90.764s25.6 90.764 58.182 90.764 58.182-41.891 58.182-90.764c0-48.873-25.6-90.764-58.182-90.764zM470.109 610.909c0 76.8-46.545 137.309-104.727 137.309s-104.727-60.509-104.727-137.309 46.545-137.309 104.727-137.309 104.727 60.509 104.727 137.309zM307.2 610.909c0 48.873 25.6 90.764 58.182 90.764s58.182-41.891 58.182-90.764-25.6-90.764-58.182-90.764-58.182 41.891-58.182 90.764z" />
<glyph unicode="&#xe90f;" glyph-name="cfood-s" d="M935.564 897.164c-11.636 6.982-25.6 4.655-32.582-4.655l-200.145-281.6c-9.309 2.327-20.945 4.655-30.255 4.655-2.327 23.273-11.636 46.545-23.273 65.164l146.618 239.709c6.982 11.636 2.327 25.6-6.982 32.582-11.636 6.982-25.6 2.327-32.582-6.982l-137.309-223.418c-32.582 32.582-76.8 53.527-128 53.527-79.127 0-148.945-51.2-172.218-123.345-6.982 0-13.964 2.327-20.945 2.327-79.127 0-151.273-55.855-174.545-130.327h707.491c-18.618 27.927-46.545 58.182-81.455 76.8l193.164 272.291c6.982 2.327 4.655 16.291-6.982 23.273zM674.909-40.727c39.564 0 69.818 30.255 69.818 69.818h-465.455c0-39.564 30.255-69.818 69.818-69.818h325.818zM23.273 424.727c0-165.236 81.455-272.291 225.745-349.091h539.927c137.309 86.109 214.109 202.473 214.109 349.091 0 0 0 0 0 0 0 25.6-20.945 46.545-46.545 46.545h-886.691c-25.6 0-46.545-20.945-46.545-46.545 0 0 0 0 0 0z" />
<glyph unicode="&#xe910;" glyph-name="cfood" d="M788.945 943.709c-11.636 6.982-25.6 2.327-32.582-6.982l-137.309-223.418c-32.582 32.582-79.127 53.527-128 53.527-79.127 0-146.618-51.2-172.218-123.345-6.982 2.327-13.964 2.327-23.273 2.327-81.455 0-151.273-53.527-174.545-128h-41.891c-13.964 0-30.255-6.982-39.564-16.291-9.309-11.636-16.291-25.6-16.291-39.564 0-179.2 95.418-328.145 256-400.291v-32.582c0-39.564 30.255-69.818 69.818-69.818h325.818c39.564 0 69.818 30.255 69.818 69.818v23.273c155.927 81.455 258.327 235.055 258.327 395.636 0 2.327 0 9.309 0 13.964 0 30.255-25.6 55.855-55.855 55.855h-116.364c-16.291 27.927-44.218 53.527-79.127 72.145l190.836 267.636c6.982 11.636 4.655 25.6-4.655 32.582-11.636 6.982-25.6 4.655-32.582-4.655l-197.818-279.273c-11.636 2.327-20.945 4.655-32.582 4.655-2.327 23.273-11.636 44.218-20.945 62.836l146.618 239.709c4.655 9.309 0 23.273-11.636 30.255zM698.182 29.091c0-13.964-9.309-23.273-23.273-23.273h-325.818c-13.964 0-23.273 9.309-23.273 23.273v23.273h372.364v-23.273zM944.873 471.273c4.655 0 9.309-4.655 9.309-9.309 0-6.982 0-11.636 0-13.964 0-167.564-114.036-288.582-221.091-349.091h-425.891c-148.945 62.836-237.382 197.818-237.382 363.055 0 4.655 2.327 6.982 2.327 6.982s2.327 2.327 6.982 2.327h865.745zM674.909 562.036v0c46.545 0 72.145-18.618 95.418-44.218h-598.109c20.945 48.873 69.818 81.455 125.673 81.455 4.655 0 11.636-2.327 18.618-4.655 4.655-2.327 9.309-2.327 13.964-4.655l23.273-6.982 4.655 23.273c11.636 62.836 67.491 109.382 132.655 109.382 72.145 0 134.982-58.182 134.982-130.327v-30.255l48.873 6.982z" />
<glyph unicode="&#xe911;" glyph-name="checkok" d="M512 960c-282.77 0-512-229.23-512-512s229.23-512 512-512c282.77 0 512 229.23 512 512v0c0 282.77-229.23 512-512 512v0zM512-17.455c-257.063 0-465.455 208.391-465.455 465.455s208.391 465.455 465.455 465.455c257.063 0 465.455-208.391 465.455-465.455v0c0-257.063-208.391-465.455-465.455-465.455v0zM786.385 662.342l-379.113-379.345-158.022 158.022c-4.043 3.478-9.343 5.596-15.138 5.596-12.853 0-23.273-10.42-23.273-23.273 0-5.795 2.118-11.095 5.622-15.169l-0.026 0.031 174.545-174.545c4.207-4.182 10.005-6.768 16.407-6.768s12.201 2.585 16.408 6.769l395.635 395.635c4.229 4.229 6.844 10.071 6.844 16.524 0 12.906-10.462 23.368-23.368 23.368-6.453 0-12.295-2.616-16.524-6.844v0z" />
<glyph unicode="&#xe912;" glyph-name="cmenu-s" d="M900.655 852.945c-41.891 39.564-107.055 37.236-109.382 37.236h-581.818c-90.764 0-116.364-60.509-116.364-93.091 0 0 0 0 0 0s0 0 0 0v-721.455c0-51.2 44.218-93.091 100.073-93.091h637.673c55.855 0 100.073 41.891 100.073 93.091v698.182c0 32.582-11.636 58.182-30.255 79.127zM209.455 843.636h581.818c0 0 48.873 0 74.473-25.6 9.309-9.309 13.964-20.945 16.291-34.909-16.291 20.945-44.218 37.236-90.764 37.236h-642.327c9.309 11.636 25.6 23.273 60.509 23.273zM791.273 448c0-25.6-20.945-46.545-46.545-46.545h-465.455c-25.6 0-46.545 20.945-46.545 46.545v116.364c0 25.6 20.945 46.545 46.545 46.545h465.455c25.6 0 46.545-20.945 46.545-46.545v-116.364zM188.509 750.545c-4.655 0-30.255 2.327-41.891 23.273h644.655c37.236 0 53.527-13.964 62.836-25.6-6.982 2.327-16.291 2.327-23.273 2.327h-642.327z" />
<glyph unicode="&#xe913;" glyph-name="cmenu" d="M193.164-17.455h637.673c55.855 0 100.073 41.891 100.073 93.091v721.455c0 34.909-16.291 55.855-27.927 67.491-32.582 30.255-79.127 25.6-90.764 25.6h-628.364c-30.255-2.327-90.764-25.6-90.764-93.091v-721.455c0-51.2 44.218-93.091 100.073-93.091zM884.364 75.636c0-25.6-23.273-46.545-53.527-46.545h-637.673c-30.255 0-53.527 20.945-53.527 46.545v642.327c16.291-9.309 32.582-13.964 46.545-13.964h644.655c30.255 0 53.527-20.945 53.527-46.545v-581.818zM830.836 750.545h-642.327c-6.982 0-30.255 4.655-41.891 23.273h737.745v-37.236c-16.291 9.309-32.582 13.964-53.527 13.964zM186.182 843.636h630.691c9.309 0 39.564 0 55.855-13.964 2.327-2.327 4.655-6.982 6.982-9.309h-733.091c11.636 18.618 34.909 23.273 39.564 23.273zM721.455 610.909h-418.909c-39.564 0-69.818-30.255-69.818-69.818v-69.818c0-39.564 30.255-69.818 69.818-69.818h418.909c39.564 0 69.818 30.255 69.818 69.818v69.818c0 39.564-30.255 69.818-69.818 69.818zM744.727 471.273c0-13.964-9.309-23.273-23.273-23.273h-418.909c-13.964 0-23.273 9.309-23.273 23.273v69.818c0 13.964 9.309 23.273 23.273 23.273h418.909c13.964 0 23.273-9.309 23.273-23.273v-69.818z" />
<glyph unicode="&#xe914;" glyph-name="coup-s" d="M907.636 820.364h-425.891c-30.255 0-55.855-16.291-67.491-41.891-6.982-18.618-23.273-30.255-41.891-30.255s-34.909 11.636-41.891 30.255c-11.636 25.6-37.236 41.891-67.491 41.891h-146.618c-51.2 0-93.091-41.891-93.091-95.418v-93.091c0 53.527 41.891 95.418 93.091 95.418h146.618c30.255 0 55.855-16.291 67.491-41.891 6.982-18.618 23.273-30.255 41.891-30.255s34.909 11.636 41.891 30.255c9.309 25.6 37.236 41.891 67.491 41.891h425.891c51.2 0 93.091-41.891 93.091-95.418v93.091c0 53.527-41.891 95.418-93.091 95.418zM116.364 29.091h146.618c30.255 0 55.855 16.291 67.491 41.891 4.655 9.309 11.636 18.618 18.618 23.273v521.309c-9.309 4.655-16.291 13.964-18.618 23.273-9.309 25.6-37.236 41.891-67.491 41.891h-146.618c-51.2 0-93.091-41.891-93.091-95.418v-460.8c0-53.527 41.891-95.418 93.091-95.418zM907.636 680.727h-425.891c-30.255 0-53.527-16.291-65.164-41.891-4.655-11.636-20.945-18.618-20.945-25.6v-516.655c0-4.655 16.291-13.964 20.945-25.6 9.309-25.6 34.909-41.891 65.164-41.891h425.891c51.2 0 93.091 41.891 93.091 95.418v460.8c0 53.527-41.891 95.418-93.091 95.418z" />
<glyph unicode="&#xe915;" glyph-name="coup" d="M907.636 843.636h-425.891c-30.255 0-55.855-16.291-67.491-41.891-6.982-18.618-23.273-30.255-41.891-30.255s-34.909 11.636-41.891 30.255c-11.636 25.6-37.236 41.891-67.491 41.891h-146.618c-51.2 0-93.091-41.891-93.091-95.418v-600.436c0-53.527 41.891-95.418 93.091-95.418h146.618c30.255 0 55.855 16.291 67.491 41.891 6.982 18.618 23.273 30.255 41.891 30.255s34.909-11.636 41.891-30.255c9.309-25.6 37.236-41.891 67.491-41.891h425.891c51.2 0 93.091 41.891 93.091 95.418v600.436c0 53.527-41.891 95.418-93.091 95.418zM69.818 748.218c0 25.6 20.945 48.873 46.545 48.873h146.618c11.636 0 20.945-4.655 23.273-13.964 13.964-34.909 48.873-58.182 86.109-58.182s72.145 23.273 86.109 58.182c2.327 9.309 11.636 13.964 23.273 13.964h425.891c25.6 0 46.545-23.273 46.545-48.873v-55.855c-2.327 2.327-6.982 2.327-9.309 4.655 0 0 0 0 0 0-4.655 2.327-9.309 4.655-16.291 4.655-2.327 0-2.327 0-4.655 0-4.655 2.327-11.636 2.327-16.291 2.327h-425.891c-30.255 0-55.855-16.291-67.491-41.891-6.982-18.618-23.273-30.255-41.891-30.255s-34.909 11.636-41.891 30.255c-9.309 25.6-37.236 41.891-67.491 41.891h-146.618c-4.655 0-11.636 0-16.291-2.327-2.327 0-2.327 0-4.655 0-4.655-2.327-9.309-2.327-16.291-4.655 0 0 0 0 0 0-2.327-2.327-6.982-2.327-9.309-4.655v55.855zM286.255 112.873c-2.327-9.309-11.636-13.964-23.273-13.964h-146.618c-25.6 0-46.545 23.273-46.545 48.873v460.8c0 25.6 20.945 48.873 46.545 48.873h146.618c11.636 0 20.945-4.655 23.273-13.964 11.636-27.927 34.909-48.873 62.836-55.855 0 0 0 0 0 0v-418.909c0 0 0 0 0 0-27.927-6.982-51.2-27.927-62.836-55.855zM954.182 147.782c0-27.927-20.945-48.873-46.545-48.873h-425.891c-11.636 0-20.945 4.655-23.273 13.964-11.636 27.927-34.909 48.873-62.836 55.855 0 0 0 0 0 0v418.909c0 0 0 0 0 0 27.927 6.982 51.2 27.927 62.836 55.855 2.327 9.309 11.636 13.964 23.273 13.964h425.891c25.6 0 46.545-23.273 46.545-48.873v-460.8z" />
<glyph unicode="&#xe916;" glyph-name="coups-s" d="M907.636 587.636v0c-30.255 0-55.855 18.618-65.164 46.545s-34.909 46.545-62.836 46.545h-579.491c-27.927 0-53.527-18.618-62.836-46.545s-37.236-46.545-65.164-46.545c-18.618 0-37.236-6.982-51.2-20.945-11.636-11.636-18.618-27.927-18.618-46.545v-286.255c0-18.618 6.982-34.909 18.618-46.545s30.255-18.618 48.873-18.618c0 0 0 0 0 0 30.255 0 55.855-18.618 65.164-46.545s34.909-46.545 62.836-46.545h579.491c27.927 0 53.527 18.618 62.836 46.545s37.236 46.545 65.164 46.545c18.618 0 37.236 6.982 51.2 20.945 11.636 11.636 18.618 27.927 18.618 46.545v283.927c0 18.618-6.982 34.909-18.618 46.545-11.636 13.964-30.255 20.945-48.873 20.945zM325.818 98.909h-46.545v116.364h46.545v-116.364zM325.818 261.818h-46.545v93.091h46.545v-93.091zM325.818 401.455h-46.545v93.091h46.545v-93.091zM325.818 541.091h-46.545v93.091h46.545v-93.091zM907.636 734.255v0c-30.255 0-55.855 16.291-67.491 41.891-9.309 27.927-32.582 44.218-62.836 44.218h-577.164c-30.255 0-53.527-16.291-65.164-44.218-9.309-25.6-34.909-41.891-65.164-41.891-18.618 0-37.236-6.982-51.2-20.945-11.636-11.636-18.618-27.927-18.618-44.218v-93.091c0 16.291 6.982 32.582 18.618 44.218 11.636 13.964 30.255 20.945 51.2 20.945 30.255 0 55.855 16.291 67.491 41.891 9.309 27.927 32.582 44.218 62.836 44.218h579.491c27.927 0 53.527-16.291 62.836-44.218 9.309-25.6 37.236-41.891 65.164-41.891v0c18.618 0 37.236-6.982 51.2-20.945 11.636-11.636 18.618-27.927 18.618-44.218v93.091c0 16.291-6.982 32.582-18.618 44.218-11.636 13.964-32.582 20.945-51.2 20.945z" />
<glyph unicode="&#xe917;" glyph-name="coups" d="M325.818 494.545c-13.964 0-23.273-9.309-23.273-23.273v-69.818c0-13.964 9.309-23.273 23.273-23.273s23.273 9.309 23.273 23.273v69.818c0 13.964-9.309 23.273-23.273 23.273zM325.818 354.909c-13.964 0-23.273-9.309-23.273-23.273v-93.091c0-13.964 9.309-23.273 23.273-23.273s23.273 9.309 23.273 23.273v93.091c0 13.964-9.309 23.273-23.273 23.273zM930.909 710.982v0c-30.255 0-55.855 16.291-67.491 41.891-9.309 27.927-32.582 44.218-62.836 44.218h-577.164c-30.255 0-53.527-20.945-65.164-46.545-9.309-25.6-37.236-46.545-67.491-46.545 0 0 0 0 0 0-18.618 0-37.236-4.655-51.2-16.291-11.636-11.636-18.618-23.273-18.618-39.564v-141.964c0 0 0-2.327 0-2.327 0-2.327 0-2.327 0-4.655v-286.255c0-18.618 6.982-34.909 18.618-46.545 16.291-13.964 34.909-20.945 53.527-20.945 30.255 0 55.855-18.618 65.164-46.545s34.909-46.545 62.836-46.545h579.491c27.927 0 53.527 18.618 62.836 46.545s37.236 46.545 65.164 46.545c0 0 0 0 0 0 18.618 0 37.236 6.982 48.873 20.945 11.636 11.636 18.618 27.927 18.618 46.545v283.927c0 2.327 0 2.327 0 4.655 0 0 0 2.327 0 2.327v141.964c0 16.291-6.982 32.582-18.618 44.218-6.982 13.964-27.927 18.618-46.545 20.945zM69.818 645.818c0 4.655 2.327 4.655 4.655 6.982 4.655 4.655 11.636 4.655 18.618 4.655 0 0 0 0 0 0 48.873 0 93.091 32.582 109.382 76.8 2.327 6.982 11.636 16.291 20.945 16.291h579.491c9.309 0 16.291-9.309 20.945-16.291 13.964-44.218 58.182-76.8 107.055-76.8v0c0 0 0 0 0 0 6.982 0 13.964 0 18.618-4.655 2.327-2.327 4.655-2.327 4.655-6.982v-81.455c-6.982 2.327-13.964 0-23.273 0 0 0 0 0 0 0-30.255 0-55.855 18.618-65.164 44.218-9.309 27.927-34.909 48.873-62.836 48.873h-579.491c-27.927 0-53.527-18.618-62.836-46.545-9.309-25.6-37.236-41.891-65.164-41.891-6.982 0-16.291 0-23.273-2.327v79.127zM954.182 212.945c0-6.982-2.327-11.636-4.655-13.964-4.655-4.655-11.636-6.982-18.618-6.982-48.873 0-93.091-30.255-109.382-76.8-2.327-9.309-11.636-16.291-20.945-16.291h-451.491v69.818c0 13.964-9.309 23.273-23.273 23.273s-23.273-9.309-23.273-23.273v-69.818h-79.127c-9.309 0-16.291 6.982-20.945 16.291-16.291 46.545-60.509 76.8-109.382 76.8 0 0 0 0 0 0-6.982 0-11.636 2.327-16.291 6.982-4.655 2.327-6.982 6.982-6.982 13.964v283.927c0 6.982 2.327 11.636 4.655 13.964 4.655 4.655 11.636 6.982 18.618 6.982 48.873 0 90.764 30.255 109.382 74.473 0 0 0 2.327 2.327 4.655 0 6.982 9.309 13.964 18.618 13.964h79.127v-69.818c0-13.964 9.309-23.273 23.273-23.273s23.273 9.309 23.273 23.273v69.818h451.491c9.309 0 16.291-6.982 20.945-16.291 0 0 0-2.327 2.327-2.327 16.291-44.218 60.509-74.473 107.055-74.473 0 0 0 0 0 0 6.982 0 11.636-2.327 16.291-6.982 2.327-2.327 4.655-6.982 4.655-13.964v-283.927z" />
<glyph unicode="&#xe918;" glyph-name="crown-s" d="M660.945 122.182c58.182 65.164 93.091 162.909 93.091 265.309 0 67.491-13.964 172.218-39.564 276.945-37.236 44.218-83.782 76.8-134.982 93.091 16.291 18.618 25.6 39.564 25.6 62.836 0 51.2-41.891 93.091-93.091 93.091s-93.091-41.891-93.091-93.091c0-23.273 9.309-44.218 23.273-60.509-48.873-13.964-93.091-44.218-128-83.782-2.327 0-2.327 0-4.655 0-25.6-107.055-41.891-216.436-41.891-286.255 0-102.4 34.909-202.473 93.091-265.309h300.218zM681.891 75.636h-565.527v-23.273c0-39.564 30.255-69.818 69.818-69.818h651.636c39.564 0 69.818 30.255 69.818 69.818v23.273h-225.745zM721.455 122.182h190.836l6.982 6.982c53.527 58.182 83.782 139.636 83.782 228.073 0 162.909-107.055 297.891-239.709 300.218 25.6-100.073 39.564-200.145 39.564-269.964 0-100.073-30.255-193.164-81.455-265.309zM139.636 122.182h162.909c-51.2 72.145-81.455 165.236-81.455 265.309 0 74.473 16.291 183.855 44.218 293.236-134.982 0-244.364-134.982-244.364-302.545 0-93.091 34.909-181.527 95.418-237.382l23.273-18.618z" />
<glyph unicode="&#xe919;" glyph-name="crown" d="M116.364 140.8v-88.436c0-39.564 30.255-69.818 69.818-69.818h651.636c39.564 0 69.818 30.255 69.818 69.818v69.818h4.655l6.982 6.982c53.527 58.182 83.782 139.636 83.782 228.073 0 167.564-109.382 302.545-246.691 302.545-11.636 0-20.945-2.327-32.582-2.327-37.236 51.2-86.109 86.109-141.964 104.727 13.964 13.964 23.273 34.909 23.273 58.182 0 51.2-41.891 93.091-93.091 93.091s-93.091-41.891-93.091-93.091c0-23.273 9.309-44.218 23.273-60.509-48.873-13.964-93.091-44.218-128-83.782-16.291 4.655-32.582 6.982-48.873 6.982-134.982 0-246.691-134.982-246.691-302.545 2.327-95.418 37.236-181.527 97.745-239.709zM861.091 52.364c0-13.964-9.309-23.273-23.273-23.273h-651.636c-13.964 0-23.273 9.309-23.273 23.273v69.818h698.182v-69.818zM756.364 613.236c109.382 0 200.145-114.036 200.145-256 0-72.145-23.273-139.636-65.164-188.509h-167.564c51.2 65.164 79.127 151.273 79.127 244.364 0 74.473-18.618 141.964-48.873 200.145 0 0 2.327 0 2.327 0zM512 866.909c25.6 0 46.545-20.945 46.545-46.545s-20.945-46.545-46.545-46.545-46.545 20.945-46.545 46.545 20.945 46.545 46.545 46.545zM512 722.618c134.982 0 244.364-139.636 244.364-311.855 0-95.418-34.909-183.855-93.091-244.364h-302.545c-60.509 60.509-93.091 148.945-93.091 244.364 0 174.545 109.382 311.855 244.364 311.855zM267.636 634.182c4.655 0 11.636 0 16.291-2.327-39.564-60.509-62.836-137.309-62.836-221.091 0-93.091 27.927-179.2 79.127-244.364h-144.291c-55.855 48.873-88.436 125.673-88.436 211.782 0 141.964 88.436 256 200.145 256z" />
<glyph unicode="&#xe91a;" glyph-name="crowns-s" d="M930.909 727.273c-44.218 0-81.455-37.236-81.455-81.455 0-11.636 2.327-20.945 6.982-30.255l-46.545-37.236-11.636 109.382c30.255 11.636 51.2 41.891 51.2 74.473 0 44.218-34.909 81.455-81.455 81.455s-81.455-37.236-81.455-81.455c0-13.964 2.327-25.6 9.309-37.236l-79.127-79.127-58.182 153.6c20.945 13.964 34.909 39.564 34.909 67.491 0 44.218-37.236 81.455-81.455 81.455s-81.455-37.236-81.455-81.455c0-27.927 13.964-51.2 34.909-67.491l-60.509-155.927-79.127 81.455c6.982 11.636 11.636 25.6 11.636 39.564 0 44.218-37.236 81.455-81.455 81.455s-83.782-37.236-83.782-81.455c0-34.909 20.945-62.836 51.2-74.473l-11.636-111.709-44.218 37.236c4.655 9.309 4.655 18.618 4.655 30.255 0 44.218-37.236 81.455-81.455 81.455s-81.455-37.236-81.455-81.455c0-41.891 32.582-76.8 74.473-81.455l107.055-442.182h665.6l83.782 442.182c39.564 4.655 72.145 39.564 72.145 81.455 0 44.218-37.236 81.455-81.455 81.455zM123.345 624.873l-2.327-2.327c-2.327-2.327-2.327-2.327-2.327-4.655-6.982-6.982-13.964-9.309-23.273-9.309-18.618 0-34.909 16.291-34.909 34.909s16.291 34.909 34.909 34.909 34.909-16.291 34.909-34.909c-2.327-6.982-4.655-13.964-6.982-18.618zM218.764 764.509c0 18.618 16.291 34.909 34.909 34.909s34.909-16.291 34.909-34.909-16.291-34.909-34.909-34.909-34.909 16.291-34.909 34.909zM339.782 473.6l-83.782 67.491 13.964 144.291c4.655 0 9.309 2.327 13.964 4.655 0 0 2.327 0 2.327 2.327 2.327 0 2.327 0 4.655 2.327l95.418-95.418-46.545-125.673zM525.964 834.327h-4.655c-2.327 0-2.327 0-4.655-2.327-2.327 0-2.327 0-4.655 0s-2.327 0-4.655 0-2.327 0-4.655 2.327h-4.655c-11.636 4.655-20.945 18.618-20.945 32.582 0 18.618 16.291 34.909 34.909 34.909s34.909-16.291 34.909-34.909c0-13.964-9.309-25.6-20.945-32.582zM684.218 473.6l-48.873 123.345 93.091 93.091c2.327 0 4.655-2.327 4.655-2.327 2.327 0 2.327 0 4.655-2.327 4.655-2.327 9.309-2.327 13.964-4.655l13.964-141.964-81.455-65.164zM774.982 727.273c-2.327 0-2.327 0-4.655 0 0 0-2.327 0-2.327 0-9.309 0-18.618 4.655-25.6 11.636-2.327 2.327-4.655 2.327-4.655 4.655-2.327 4.655-4.655 11.636-4.655 16.291 0 20.945 16.291 37.236 34.909 37.236s34.909-16.291 34.909-34.909c0-16.291-11.636-30.255-27.927-34.909zM930.909 610.909c-9.309 0-18.618 4.655-23.273 9.309 0 2.327-2.327 2.327-2.327 4.655l-2.327 2.327c-4.655 4.655-4.655 11.636-4.655 18.618 0 18.618 16.291 34.909 34.909 34.909s34.909-16.291 34.909-34.909-18.618-34.909-37.236-34.909zM186.182-17.455c0-25.6 20.945-46.545 46.545-46.545h581.818c25.6 0 46.545 20.945 46.545 46.545v93.091h-674.909v-93.091z" />
<glyph unicode="&#xe91b;" glyph-name="crowns" d="M930.909 738.909c-44.218 0-81.455-37.236-81.455-81.455 0-11.636 2.327-20.945 6.982-30.255l-46.545-37.236-11.636 109.382c30.255 11.636 51.2 41.891 51.2 74.473 0 44.218-37.236 81.455-81.455 81.455s-81.455-37.236-81.455-81.455c0-13.964 4.655-27.927 11.636-39.564l-79.127-76.8-60.509 153.6c20.945 13.964 34.909 39.564 34.909 67.491 0 44.218-37.236 81.455-81.455 81.455s-81.455-37.236-81.455-81.455c0-27.927 13.964-51.2 34.909-67.491l-60.509-153.6-79.127 79.127c6.982 11.636 11.636 25.6 11.636 39.564 0 44.218-37.236 81.455-81.455 81.455s-81.455-37.236-81.455-81.455c0-34.909 20.945-62.836 51.2-74.473l-11.636-114.036-44.218 37.236c4.655 9.309 4.655 18.618 4.655 30.255 0 44.218-34.909 81.455-81.455 81.455s-81.455-37.236-81.455-81.455c0-44.218 34.909-79.127 76.8-81.455l97.745-409.6c2.327-11.636 11.636-18.618 23.273-18.618h628.364c11.636 0 20.945 6.982 23.273 18.618l79.127 411.927c41.891 4.655 72.145 39.564 72.145 81.455 0 44.218-37.236 81.455-81.455 81.455zM768 808.727c18.618 0 34.909-16.291 34.909-34.909s-13.964-34.909-34.909-34.909-34.909 16.291-34.909 34.909 16.291 34.909 34.909 34.909zM730.764 701.673c2.327 0 4.655-2.327 4.655-2.327 2.327 0 2.327 0 4.655-2.327 4.655-2.327 9.309-2.327 13.964-4.655l13.964-141.964-81.455-67.491-48.873 128 93.091 90.764zM512 913.455c18.618 0 34.909-16.291 34.909-34.909 0-16.291-9.309-27.927-23.273-32.582 0 0 0 0 0 0-2.327 0-2.327 0-4.655-2.327-2.327 0-2.327 0-4.655 0s-2.327 0-4.655 0-2.327 0-4.655 2.327c0 0 0 0 0 0-13.964 4.655-23.273 18.618-23.273 32.582-4.655 18.618 11.636 34.909 30.255 34.909zM256 811.055c18.618 0 34.909-16.291 34.909-34.909 0-9.309-4.655-18.618-11.636-25.6 0 0 0 0 0 0-6.982-6.982-13.964-9.309-23.273-9.309 0 0-2.327 0-2.327 0s0 0 0 0c-18.618 2.327-32.582 16.291-32.582 34.909s13.964 34.909 34.909 34.909zM272.291 697.018c0 0 0 0 0 0 4.655 0 9.309 2.327 13.964 4.655 2.327 0 2.327 2.327 4.655 2.327 0 0 2.327 0 2.327 2.327l95.418-95.418-48.873-123.345-81.455 67.491 13.964 141.964zM58.182 655.127c0 18.618 16.291 34.909 34.909 34.909s34.909-16.291 34.909-34.909c0-6.982-2.327-13.964-6.982-20.945 0 0 0 0 0 0-4.655-6.982-11.636-11.636-18.618-11.636 0 0 0 0 0 0-2.327 0-4.655 0-6.982 0-20.945-2.327-37.236 13.964-37.236 32.582zM228.073 192l-11.636 46.545h609.745l-9.309-46.545h-588.8zM835.491 285.091h-626.036v-16.291l-74.473 316.509c0 0 2.327 0 2.327 2.327 0 0 2.327 0 2.327 0l193.164-158.255c4.655-4.655 13.964-6.982 20.945-4.655s13.964 6.982 16.291 13.964l139.636 358.4c0 0 2.327 0 2.327 0s0 0 0 0 0 0 0 0 2.327 0 2.327 0l139.636-358.4c2.327-6.982 9.309-11.636 16.291-13.964s13.964 0 20.945 4.655l195.491 160.582c2.327 0 2.327-2.327 4.655-2.327s2.327-2.327 4.655-2.327l-60.509-300.218zM930.909 622.545c-2.327 0-4.655 0-6.982 0 0 0 0 0 0 0-6.982 2.327-16.291 6.982-20.945 11.636 0 0 0 0 0 0-4.655 6.982-6.982 13.964-6.982 20.945 0 18.618 16.291 34.909 34.909 34.909s34.909-16.291 34.909-34.909-16.291-32.582-34.909-32.582zM837.818-40.727c13.964 0 23.273 9.309 23.273 23.273v93.091c0 13.964-9.309 23.273-23.273 23.273h-628.364c-13.964 0-23.273-9.309-23.273-23.273v-93.091c0-13.964 9.309-23.273 23.273-23.273h628.364zM232.727 52.364h581.818v-46.545h-581.818v46.545z" />
<glyph unicode="&#xe91c;" glyph-name="cup-s" d="M232.727 704c13.964 0 23.273 9.309 23.273 23.273v162.909c0 13.964-9.309 23.273-23.273 23.273s-23.273-9.309-23.273-23.273v-162.909c0-13.964 9.309-23.273 23.273-23.273zM418.909 704c13.964 0 23.273 9.309 23.273 23.273v162.909c0 13.964-9.309 23.273-23.273 23.273s-23.273-9.309-23.273-23.273v-162.909c0-13.964 9.309-23.273 23.273-23.273zM605.091 704c13.964 0 23.273 9.309 23.273 23.273v162.909c0 13.964-9.309 23.273-23.273 23.273s-23.273-9.309-23.273-23.273v-162.909c0-13.964 9.309-23.273 23.273-23.273zM991.418 517.818c-13.964 37.236-55.855 95.418-179.2 81.455-6.982 32.582-34.909 58.182-69.818 58.182h-623.709c-39.564 0-72.145-34.909-72.145-76.8v-39.564h768v11.636c72.145 9.309 116.364-9.309 132.655-51.2 25.6-67.491-25.6-174.545-58.182-195.491-30.255-18.618-60.509-23.273-76.8-23.273 0 9.309 2.327 18.618 2.327 27.927v183.855h-768v-183.855c0-111.709 69.818-204.8 165.236-228.073-2.327-2.327-2.327-4.655-2.327-6.982v-69.818h-69.818c-13.964 0-23.273-9.309-23.273-23.273s9.309-23.273 23.273-23.273h605.091c13.964 0 23.273 9.309 23.273 23.273s-9.309 23.273-23.273 23.273h-69.818v69.818c0 4.655-2.327 9.309-4.655 13.964 62.836 23.273 111.709 79.127 132.655 146.618 2.327 0 2.327 0 4.655 0 18.618 0 62.836 2.327 104.727 30.255 53.527 34.909 111.709 162.909 79.127 251.345zM256 75.636c0 0 0 0 0 0 2.327 0 2.327 0 4.655 0h-4.655zM628.364 75.636h-27.927c9.309 0 18.618 0 27.927 0 0 2.327 0 0 0 0z" />
<glyph unicode="&#xe91d;" glyph-name="cup" d="M256 866.909v-209.455c0-13.964 9.309-23.273 23.273-23.273s23.273 9.309 23.273 23.273v209.455c0 13.964-9.309 23.273-23.273 23.273s-23.273-9.309-23.273-23.273zM418.909 866.909v-209.455c0-13.964 9.309-23.273 23.273-23.273s23.273 9.309 23.273 23.273v209.455c0 13.964-9.309 23.273-23.273 23.273s-23.273-9.309-23.273-23.273zM581.818 866.909v-209.455c0-13.964 9.309-23.273 23.273-23.273s23.273 9.309 23.273 23.273v209.455c0 13.964-9.309 23.273-23.273 23.273s-23.273-9.309-23.273-23.273zM93.091 306.036c0-100.073 69.818-181.527 162.909-202.473v-27.927c0-9.309 2.327-16.291 4.655-23.273h-74.473c-13.964 0-23.273-9.309-23.273-23.273s9.309-23.273 23.273-23.273h581.818c13.964 0 23.273 9.309 23.273 23.273s-9.309 23.273-23.273 23.273h-74.473c2.327 6.982 4.655 13.964 4.655 23.273v34.909c60.509 20.945 107.055 67.491 128 128 18.618 0 55.855 4.655 93.091 25.6 48.873 27.927 102.4 139.636 74.473 218.764-11.636 32.582-48.873 86.109-160.582 79.127-6.982 27.927-34.909 48.873-65.164 48.873h-605.091c-39.564 0-69.818-30.255-69.818-69.818v-235.055zM651.636 75.636c0-13.964-9.309-23.273-23.273-23.273h-302.545c-13.964 0-23.273 9.309-23.273 23.273v23.273h328.145c6.982 0 13.964 0 20.945 0v-23.273zM949.527 468.945c20.945-58.182-25.6-146.618-53.527-162.909-20.945-13.964-44.218-18.618-58.182-18.618 0 6.982 0 13.964 0 20.945v209.455c62.836 2.327 100.073-13.964 111.709-48.873zM139.636 541.091c0 13.964 9.309 23.273 23.273 23.273h605.091c13.964 0 23.273-9.309 23.273-23.273v-235.055c0-88.436-72.145-160.582-160.582-160.582h-330.473c-88.436 0-160.582 72.145-160.582 160.582v235.055z" />
<glyph unicode="&#xe91e;" glyph-name="del" d="M861.091 704h-488.727c-17.063-0.036-32.682-6.187-44.79-16.378l0.106 0.087-223.418-186.182c-15.404-12.896-25.131-32.134-25.131-53.644s9.727-40.747 25.022-53.555l0.109-0.089 223.418-186.182c11.992-9.992 27.561-16.058 44.547-16.058 0.048 0 0.096 0 0.144 0h488.72c38.56 0 69.818 31.259 69.818 69.818v0 372.364c0 38.56-31.259 69.818-69.818 69.818v0zM884.364 261.818c0-12.853-10.42-23.273-23.273-23.273v0h-488.727c-0.014 0-0.029 0-0.045 0-5.662 0-10.852 2.022-14.887 5.383l0.038-0.030-223.418 186.182c-5.162 4.299-8.424 10.729-8.424 17.92s3.262 13.621 8.386 17.89l0.038 0.030 223.418 186.182c3.997 3.331 9.187 5.353 14.849 5.353 0.016 0 0.032 0 0.048 0h488.725c12.853 0 23.273-10.42 23.273-23.273v0-372.364zM691.433 524.567l-33.047 33.047-23.273-23.273-53.295-53.527-53.295 53.527-23.273 23.273-33.047-33.047 23.273-23.273 53.527-53.295-53.527-53.295-23.273-23.273 33.047-33.047 23.273 23.273 53.295 53.527 53.295-53.527 23.273-23.273 33.047 33.047-23.273 23.273-53.527 53.295 53.527 53.295 23.273 23.273z" />
<glyph unicode="&#xe91f;" glyph-name="delico" d="M209.455 52.364c0-25.706 20.839-46.545 46.545-46.545v0h512c25.706 0 46.545 20.839 46.545 46.545v0l46.545 628.364h-698.182zM651.636 587.636h116.364l-23.273-465.455c0-12.853-10.42-23.273-23.273-23.273v0h-69.818v488.727zM581.818 587.636l-23.273-488.727h-93.091l-23.273 488.727h139.636zM372.364 587.636v-488.727h-69.818c-12.853 0-23.273 10.42-23.273 23.273v0l-23.273 465.455h116.364zM884.364 820.364h-256v20.48c0 27.249-22.089 49.338-49.338 49.338v0h-134.051c-27.249 0-49.338-22.089-49.338-49.338v0-20.48h-256c-25.706 0-46.545-20.839-46.545-46.545s20.839-46.545 46.545-46.545v0h744.727c25.706 0 46.545 20.839 46.545 46.545s-20.839 46.545-46.545 46.545v0z" />
<glyph unicode="&#xe920;" glyph-name="delico2" d="M837.818 820.364h-232.727v23.273c0 38.56-31.259 69.818-69.818 69.818v0h-46.545c-38.56 0-69.818-31.259-69.818-69.818v0-23.273h-232.727c-38.56 0-69.818-31.259-69.818-69.818v0-23.273c0-38.56 31.259-69.818 69.818-69.818v0h24.902l42.124-609.978c2.631-36.398 32.807-64.931 69.647-64.931 0.060 0 0.12 0 0.181 0h378.173c0.051 0 0.111 0 0.171 0 36.84 0 67.016 28.533 69.634 64.705l0.013 0.226 41.891 609.978h24.902c38.56 0 69.818 31.259 69.818 69.818v0 23.273c0 38.56-31.259 69.818-69.818 69.818v0zM465.455 843.636c0 12.853 10.42 23.273 23.273 23.273v0h46.545c12.853 0 23.273-10.42 23.273-23.273v0-23.273h-93.091v23.273zM724.48 50.735c-0.877-12.133-10.936-21.644-23.216-21.644-0.020 0-0.040 0-0.060 0h-378.412c-0.017 0-0.037 0-0.057 0-12.28 0-22.339 9.511-23.211 21.568l-0.004 0.075-41.891 606.72h508.742zM861.091 727.273c0-12.853-10.42-23.273-23.273-23.273v0h-651.636c-12.853 0-23.273 10.42-23.273 23.273v0 23.273c0 12.853 10.42 23.273 23.273 23.273v0h651.636c12.853 0 23.273-10.42 23.273-23.273v0-23.273zM627.2 98.909h1.164c0.009 0 0.019 0 0.029 0 12.444 0 22.607 9.767 23.241 22.052l0.002 0.057 23.273 442.182c0.019 0.356 0.031 0.772 0.031 1.191 0 12.455-9.783 22.624-22.084 23.243l-0.055 0.002c-0.356 0.019-0.772 0.031-1.191 0.031-12.455 0-22.624-9.783-23.243-22.084l-0.002-0.055-23.273-442.182c-0.019-0.356-0.031-0.772-0.031-1.191 0-12.455 9.783-22.624 22.084-23.243l0.055-0.002zM512 98.909c12.853 0 23.273 10.42 23.273 23.273v0 442.182c0 12.853-10.42 23.273-23.273 23.273s-23.273-10.42-23.273-23.273v0-442.182c0-12.853 10.42-23.273 23.273-23.273v0zM395.636 98.909h1.164c12.356 0.621 22.14 10.791 22.14 23.245 0 0.419-0.011 0.835-0.033 1.249l0.002-0.058-23.273 442.182c-0.698 12.31-10.85 22.028-23.273 22.028-12.873 0-23.308-10.435-23.308-23.308 0-0.45 0.013-0.898 0.038-1.342l-0.003 0.062 23.273-442.182c0.758-12.238 10.869-21.876 23.231-21.876 0.015 0 0.029 0 0.044 0h-0.002z" />
<glyph unicode="&#xe921;" glyph-name="dels" d="M512 960c-282.77 0-512-229.23-512-512s229.23-512 512-512c282.77 0 512 229.23 512 512v0c0 282.77-229.23 512-512 512v0zM512-17.455c-257.063 0-465.455 208.391-465.455 465.455s208.391 465.455 465.455 465.455c257.063 0 465.455-208.391 465.455-465.455v0c0-257.063-208.391-465.455-465.455-465.455v0zM737.978 673.978c-4.207 4.182-10.005 6.768-16.407 6.768s-12.201-2.585-16.408-6.769l-193.163-193.163-192.931 192.931c-4.043 3.478-9.343 5.596-15.138 5.596-12.853 0-23.273-10.42-23.273-23.273 0-5.795 2.118-11.095 5.622-15.169l-0.026 0.031 192.931-192.931-192.931-192.931c-4.993-4.294-8.135-10.618-8.135-17.677 0-12.853 10.42-23.273 23.273-23.273 7.058 0 13.383 3.142 17.651 8.104l0.026 0.031 192.931 192.931 192.931-192.931c4.043-3.478 9.343-5.596 15.138-5.596 12.853 0 23.273 10.42 23.273 23.273 0 5.795-2.118 11.095-5.622 15.169l0.026-0.031-192.931 192.931 192.931 192.931c4.322 4.229 7.001 10.121 7.001 16.639 0 6.403-2.586 12.202-6.77 16.409l0.001-0.001z" />
<glyph unicode="&#xe922;" glyph-name="drink-s" d="M768 936.727h-512c-39.564 0-69.818-30.255-69.818-69.818h651.636c0 39.564-30.255 69.818-69.818 69.818zM258.327 15.127c4.655-32.582 34.909-55.855 67.491-55.855h372.364c32.582 0 60.509 25.6 65.164 60.509l60.509 591.127h-635.345l69.818-595.782zM837.818 818.036v0l-651.636 2.327v-2.327c-32.582-4.655-69.818-32.582-69.818-67.491v-23.273c0-34.909 32.582-69.818 67.491-69.818h653.964c23.273 4.655 46.545 34.909 46.545 69.818v23.273c0 34.909-13.964 62.836-46.545 67.491z" />
<glyph unicode="&#xe923;" glyph-name="drink" d="M837.818 818.036v48.873c0 39.564-30.255 69.818-69.818 69.818h-512c-39.564 0-69.818-30.255-69.818-69.818v-48.873c-32.582-4.655-69.818-32.582-69.818-67.491v-23.273c0-34.909 32.582-65.164 67.491-69.818l74.473-642.327c4.655-32.582 34.909-55.855 67.491-55.855h372.364c32.582 0 60.509 25.6 65.164 60.509l65.164 637.673c34.909 4.655 55.855 32.582 55.855 69.818v23.273c0 34.909-13.964 62.836-46.545 67.491zM232.727 866.909c0 13.964 9.309 23.273 23.273 23.273h512c13.964 0 23.273-9.309 23.273-23.273v-46.545h-558.545v46.545zM716.8 24.436c0-9.309-9.309-18.618-18.618-18.618h-372.364c-9.309 0-18.618 6.982-18.618 16.291l-72.145 635.345h553.891l-72.145-633.018zM837.818 727.273c0-13.964-9.309-23.273-23.273-23.273h-628.364c-13.964 0-23.273 9.309-23.273 23.273v23.273c0 13.964 9.309 23.273 23.273 23.273h628.364c13.964 0 23.273-9.309 23.273-23.273v-23.273z" />
<glyph unicode="&#xe924;" glyph-name="edit" d="M884.364 98.909c0-12.8-57.018-23.273-69.818-23.273h-651.636c-12.853 0-23.273 10.42-23.273 23.273v0 651.636c0 12.853 10.42 23.273 23.273 23.273v0h349.091v69.818h-395.636c-25.706 0-46.545-20.839-46.545-46.545v0-744.727c0-25.706 20.839-46.545 46.545-46.545v0h791.273c25.706 0 46.545 20.839 46.545 46.545v0 465.455h-69.818v-418.909zM449.629 253.905l-193.629-61.905 61.905 193.629 362.124 362.124 131.724-131.724-362.124-362.124zM745.883 813.448l131.65-131.65-32.913-32.913-131.65 131.65 32.913 32.913zM926.954 862.838v0c36.354-36.354 36.354-95.296 0-131.65v0l-16.456-16.456-131.65 131.65 16.456 16.456c36.354 36.354 95.296 36.354 131.65 0v0z" />
<glyph unicode="&#xe925;" glyph-name="edit2" d="M817.804 852.48c-12.801 12.238-30.19 19.771-49.338 19.771s-36.537-7.533-49.365-19.796l0.027 0.025-65.862-65.629-460.8-460.8c-2.662-2.254-4.79-5.053-6.224-8.231l-0.059-0.147-97.745-263.215c-0.961-2.454-1.518-5.295-1.518-8.267 0-12.853 10.42-23.273 23.273-23.273 2.971 0 5.813 0.557 8.425 1.572l-0.159-0.054 263.215 97.745c3.272 1.227 6.067 3.048 8.379 5.353l526.661 526.661c12.616 12.632 20.419 30.074 20.419 49.338s-7.802 36.707-20.419 49.339l0.001-0.001zM241.804 308.364l378.647 379.578 131.724-131.724-379.811-378.415zM218.531 266.24l113.338-113.338-181.527-68.189zM784.989 589.265l-131.724 131.724 16.524 16.524 131.724-131.724zM884.364 687.942l-49.338-49.338-132.422 131.724 49.338 50.036c4.207 4.182 10.005 6.768 16.407 6.768s12.201-2.585 16.408-6.769l-0.001 0.001 99.607-99.375c4.252-4.218 6.884-10.064 6.884-16.524s-2.632-12.305-6.883-16.522l-0.002-0.002z" />
<glyph unicode="&#xe926;" glyph-name="editbz-s" d="M186.182-17.455h651.636c51.2 0 93.091 41.891 93.091 93.091v693.527c37.236 46.545 34.909 111.709-6.982 155.927-46.545 44.218-118.691 44.218-165.236 0l-18.618-18.618c-4.655 2.327-11.636 6.982-18.618 6.982h-535.273c-51.2 0-93.091-41.891-93.091-93.091v-744.727c0-51.2 41.891-93.091 93.091-93.091zM791.273 890.182c27.927 27.927 72.145 27.927 97.745 0 27.927-27.927 27.927-72.145 0-97.745l-16.291-18.618-97.745 97.745 16.291 18.618zM740.073 838.982l97.745-100.073-23.273-23.273-97.745 97.745 23.273 25.6zM791.273 331.636c0-13.964-9.309-23.273-23.273-23.273h-162.909c-13.964 0-23.273 9.309-23.273 23.273s9.309 23.273 23.273 23.273h162.909c13.964 0 23.273-9.309 23.273-23.273zM779.636 680.727l-283.927-283.927-100.073 97.745 286.255 286.255 97.745-100.073zM453.818 373.527l-125.673-46.545 46.545 125.673 79.127-79.127zM232.727 704h279.273c6.982 0 13.964-4.655 18.618-9.309l-37.236-37.236h-260.655c-13.964 0-23.273 9.309-23.273 23.273s9.309 23.273 23.273 23.273zM232.727 192h535.273c13.964 0 23.273-9.309 23.273-23.273s-9.309-23.273-23.273-23.273h-535.273c-13.964 0-23.273 9.309-23.273 23.273s9.309 23.273 23.273 23.273z" />
<glyph unicode="&#xe927;" glyph-name="editbz" d="M186.182-64h651.636c51.2 0 93.091 41.891 93.091 93.091v698.182c0 2.327 0 4.655-2.327 9.309l20.945 20.945c20.945 20.945 34.909 51.2 34.909 81.455s-11.636 60.509-34.909 81.455-51.2 34.909-81.455 34.909-60.509-11.636-81.455-34.909l-55.855-55.855c-4.655 2.327-6.982 2.327-9.309 2.327h-535.273c-51.2 0-93.091-41.891-93.091-93.091v-744.727c0-51.2 41.891-93.091 93.091-93.091zM397.964 450.327l79.127-79.127-125.673-46.545 46.545 125.673zM521.309 394.473l-97.745 97.745 283.927 286.255 97.745-97.745-283.927-286.255zM840.145 710.982l-97.745 97.745 25.6 25.6 97.745-97.745-25.6-25.6zM916.945 887.855c13.964-13.964 20.945-30.255 20.945-48.873s-6.982-37.236-20.945-48.873l-18.618-18.618-97.745 97.745 18.618 18.618c25.6 25.6 69.818 25.6 97.745 0zM139.636 773.818c0 25.6 20.945 46.545 46.545 46.545h488.727c0-2.327 0-4.655 2.327-9.309l-132.655-132.655c-4.655 2.327-6.982 2.327-9.309 2.327h-279.273c-13.964 0-23.273-9.309-23.273-23.273s9.309-23.273 23.273-23.273h242.036l-125.673-125.673c-2.327-2.327-4.655-4.655-4.655-6.982 0 0 0 0 0 0l-76.8-207.127c-2.327-9.309 0-18.618 4.655-25.6 4.655-4.655 9.309-6.982 16.291-6.982 2.327 0 4.655 0 6.982 2.327l207.127 76.8c0 0 0 0 0 0 2.327 0 4.655 2.327 6.982 4.655l351.418 344.436v-660.945c0-25.6-20.945-46.545-46.545-46.545h-651.636c-25.6 0-46.545 20.945-46.545 46.545v744.727zM279.273 98.909h465.455c13.964 0 23.273 9.309 23.273 23.273s-9.309 23.273-23.273 23.273h-465.455c-13.964 0-23.273-9.309-23.273-23.273s9.309-23.273 23.273-23.273zM628.364 308.364h116.364c13.964 0 23.273 9.309 23.273 23.273s-9.309 23.273-23.273 23.273h-116.364c-13.964 0-23.273-9.309-23.273-23.273s9.309-23.273 23.273-23.273z" />
<glyph unicode="&#xe928;" glyph-name="ewm" d="M69.818 5.818h325.818v325.818h-325.818v-325.818zM139.636 261.818h186.182v-186.182h-186.182v186.182zM186.182 215.273h93.091v-93.091h-93.091v93.091zM69.818 564.364h325.818v325.818h-325.818v-325.818zM139.636 820.364h186.182v-186.182h-186.182v186.182zM186.182 773.818h93.091v-93.091h-93.091v93.091zM628.364 564.364h325.818v325.818h-325.818v-325.818zM698.182 820.364h186.182v-186.182h-186.182v186.182zM744.727 773.818h93.091v-93.091h-93.091v93.091zM465.455 890.182h93.091v-186.182h-93.091v186.182zM628.364 192h93.091v-186.182h-93.091v186.182zM465.455 634.182h93.091v-69.818h-93.091v69.818zM69.818 494.545h93.091v-93.091h-93.091v93.091zM232.727 494.545h162.909v-93.091h-162.909v93.091zM791.273 331.636h-232.727v162.909h-93.091v-256h325.818zM628.364 494.545h162.909v-93.091h-162.909v93.091zM465.455 192h93.091v-69.818h-93.091v69.818zM465.455 75.636h93.091v-69.818h-93.091v69.818zM768 192h186.182v-186.182h-186.182v186.182zM861.091 401.455h93.091v-162.909h-93.091v162.909zM861.091 494.545h93.091v-46.545h-93.091v46.545z" />
<glyph unicode="&#xe929;" glyph-name="help-s" d="M512 948.364c-276.945 0-500.364-223.418-500.364-500.364s223.418-500.364 500.364-500.364 500.364 223.418 500.364 500.364-223.418 500.364-500.364 500.364zM512 145.455c0-18.618-16.291-34.909-34.909-34.909s-34.909 16.291-34.909 34.909v23.273c0 18.618 16.291 34.909 34.909 34.909s34.909-16.291 34.909-34.909v-23.273zM616.727 429.382c-97.745-60.509-97.745-107.055-97.745-151.273 0-18.618-16.291-34.909-34.909-34.909s-34.909 16.291-34.909 34.909c0 65.164 9.309 134.982 132.655 209.455 67.491 41.891 79.127 102.4 65.164 146.618-11.636 41.891-53.527 90.764-128 88.436-139.636-2.327-139.636-144.291-139.636-148.945 0-18.618-16.291-32.582-34.909-32.582 0 0 0 0 0 0-18.618 0-34.909 13.964-34.909 32.582 0 74.473 41.891 218.764 207.127 221.091 93.091 0 172.218-55.855 195.491-139.636 25.6-86.109-11.636-174.545-95.418-225.745z" />
<glyph unicode="&#xe92a;" glyph-name="help" d="M488.727-52.364c276.945 0 500.364 223.418 500.364 500.364s-223.418 500.364-500.364 500.364-500.364-223.418-500.364-500.364 223.418-500.364 500.364-500.364zM488.727 901.818c251.345 0 453.818-202.473 453.818-453.818s-202.473-453.818-453.818-453.818-453.818 202.473-453.818 453.818 202.473 453.818 453.818 453.818zM321.164 541.091c0 0 0 0 0 0 13.964 0 23.273 13.964 23.273 27.927 0 6.982 0 165.236 151.273 167.564 67.491 0 121.018-37.236 139.636-97.745 13.964-48.873 2.327-116.364-69.818-160.582-116.364-72.145-125.673-134.982-125.673-200.145 0-13.964 9.309-23.273 23.273-23.273s23.273 9.309 23.273 23.273c0 46.545 0 95.418 104.727 160.582 79.127 48.873 114.036 130.327 90.764 211.782-23.273 79.127-97.745 130.327-183.855 130.327-155.927-2.327-197.818-139.636-195.491-211.782-4.655-13.964 4.655-27.927 18.618-27.927zM465.455 192c-13.964 0-23.273-9.309-23.273-23.273v-23.273c0-13.964 9.309-23.273 23.273-23.273s23.273 9.309 23.273 23.273v23.273c0 13.964-9.309 23.273-23.273 23.273z" />
<glyph unicode="&#xe92b;" glyph-name="home-s" d="M6.982 424.727h155.927v-325.818c0-25.6 20.945-46.545 46.545-46.545h209.455v279.273h186.182v-279.273h209.455c25.6 0 46.545 20.945 46.545 46.545v325.818h155.927l-505.018 432.873-505.018-432.873z" />
<glyph unicode="&#xe92c;" glyph-name="home" d="M-39.564 448h179.2v-349.091c0-39.564 30.255-69.818 69.818-69.818h605.091c39.564 0 69.818 30.255 69.818 69.818v349.091h179.2l-551.564 474.764-551.564-474.764zM395.636 75.636v209.455c0 13.964 9.309 23.273 23.273 23.273h186.182c13.964 0 23.273-9.309 23.273-23.273v-209.455h-232.727zM837.818 494.545v-395.636c0-13.964-9.309-23.273-23.273-23.273h-139.636v209.455c0 39.564-30.255 69.818-69.818 69.818h-186.182c-39.564 0-69.818-30.255-69.818-69.818v-209.455h-139.636c-13.964 0-23.273 9.309-23.273 23.273v395.636h-100.073l425.891 365.382 425.891-365.382h-100.073z" />
<glyph unicode="&#xe92d;" glyph-name="info-s" d="M512 960c-281.6 0-512-230.4-512-512s230.4-512 512-512 512 230.4 512 512-230.4 512-512 512zM512 122.182c-44.218 0-81.455 37.236-81.455 81.455s37.236 81.455 81.455 81.455 81.455-37.236 81.455-81.455-37.236-81.455-81.455-81.455zM593.455 690.036l-32.582-290.909c-2.327-25.6-23.273-44.218-48.873-44.218s-46.545 18.618-48.873 44.218l-32.582 290.909c-6.982 32.582 2.327 69.818 20.945 95.418 13.964 23.273 37.236 34.909 60.509 34.909s46.545-11.636 62.836-34.909c18.618-25.6 25.6-60.509 18.618-95.418z" />
<glyph unicode="&#xe92e;" glyph-name="jifen-s" d="M116.364 29.091c0-25.6 20.945-46.545 46.545-46.545h325.818v418.909h-372.364v-372.364zM535.273-17.455h325.818c25.6 0 46.545 20.945 46.545 46.545v372.364h-372.364v-418.909zM607.418 657.455c79.127 27.927 183.855 76.8 209.455 144.291 11.636 30.255 6.982 62.836-13.964 95.418-18.618 27.927-53.527 39.564-93.091 39.564 0 0 0 0 0 0-48.873 0-95.418-20.945-123.345-62.836s-55.855-102.4-74.473-148.945c-18.618 48.873-51.2 116.364-88.436 153.6-44.218 41.891-93.091 65.164-134.982 62.836-30.255-2.327-55.855-13.964-74.473-37.236v-2.327c-30.255-46.545-23.273-88.436-13.964-111.709 30.255-67.491 130.327-107.055 207.127-132.655h-314.182c-25.6 0-46.545-20.945-46.545-46.545v-162.909h442.182v186.182h46.545v-186.182h442.182v162.909c0 25.6-20.945 46.545-46.545 46.545h-323.491zM242.036 811.055c-9.309 20.945-4.655 41.891 9.309 65.164 11.636 11.636 23.273 18.618 39.564 18.618 27.927 2.327 67.491-16.291 100.073-48.873 37.236-37.236 69.818-111.709 86.109-158.255-79.127 18.618-207.127 60.509-235.055 123.345zM623.709 848.291c20.945 30.255 53.527 41.891 86.109 41.891 0 0 0 0 0 0 23.273 0 44.218-4.655 55.855-20.945 11.636-18.618 16.291-30.255 9.309-46.545-23.273-60.509-146.618-109.382-225.745-134.982 16.291 46.545 44.218 116.364 74.473 160.582z" />
<glyph unicode="&#xe92f;" glyph-name="jifen" d="M907.636 657.455h-246.691c67.491 27.927 134.982 69.818 155.927 123.345 11.636 30.255 6.982 60.509-13.964 93.091-18.618 27.927-53.527 39.564-93.091 39.564 0 0 0 0 0 0-48.873 0-95.418-20.945-123.345-62.836s-55.855-102.4-74.473-148.945c-18.618 48.873-51.2 116.364-88.436 153.6-44.218 41.891-93.091 65.164-134.982 62.836-30.255-2.327-55.855-13.964-74.473-37.236 0 0 0-2.327-2.327-2.327-30.255-46.545-23.273-86.109-13.964-109.382 20.945-48.873 81.455-86.109 144.291-111.709h-225.745c-39.564 0-69.818-30.255-69.818-69.818v-69.818c0-39.564 30.255-69.818 69.818-69.818v-395.636c0-39.564 30.255-69.818 69.818-69.818h651.636c39.564 0 69.818 30.255 69.818 69.818v395.636c39.564 0 69.818 30.255 69.818 69.818v69.818c0 39.564-30.255 69.818-69.818 69.818zM623.709 825.018c20.945 30.255 53.527 41.891 86.109 41.891 0 0 0 0 0 0 23.273 0 44.218-4.655 55.855-20.945 11.636-18.618 16.291-30.255 9.309-46.545-23.273-60.509-146.618-109.382-225.745-134.982 16.291 46.545 44.218 116.364 74.473 160.582zM242.036 787.782c-9.309 20.945-4.655 41.891 9.309 65.164 11.636 11.636 23.273 18.618 39.564 18.618 27.927 2.327 67.491-16.291 100.073-48.873 39.564-37.236 69.818-111.709 86.109-158.255-79.127 18.618-207.127 60.509-235.055 123.345zM93.091 517.818v69.818c0 13.964 9.309 23.273 23.273 23.273h372.364v-116.364h-372.364c-13.964 0-23.273 9.309-23.273 23.273zM162.909 52.364v395.636h325.818v-418.909h-302.545c-13.964 0-23.273 9.309-23.273 23.273zM861.091 52.364c0-13.964-9.309-23.273-23.273-23.273h-302.545v418.909h325.818v-395.636zM930.909 517.818c0-13.964-9.309-23.273-23.273-23.273h-372.364v116.364h372.364c13.964 0 23.273-9.309 23.273-23.273v-69.818z" />
<glyph unicode="&#xe930;" glyph-name="keybord" d="M907.636 773.818h-791.273c-25.706 0-46.545-20.839-46.545-46.545v0-465.455c0-25.706 20.839-46.545 46.545-46.545v0h791.273c25.706 0 46.545 20.839 46.545 46.545v0 465.455c0 25.706-20.839 46.545-46.545 46.545v0zM558.545 704h93.091v-93.091h-93.091v93.091zM372.364 704h93.091v-93.091h-93.091v93.091zM558.545 541.091v-93.091h-93.091v93.091h93.091zM186.182 704h93.091v-93.091h-93.091v93.091zM372.364 541.091v-93.091h-93.091v93.091h93.091zM744.727 285.091h-465.455v93.091h465.455v-93.091zM744.727 448h-93.091v93.091h93.091v-93.091zM837.818 610.909h-93.091v93.091h93.091v-93.091z" />
<glyph unicode="&#xe931;" glyph-name="logo" d="M95.046 326.889c-43.473 0-79.779-23.087-91.601-54.365-12.753-33.885 11.357-51.107 43.66-52.689 3.368-0.134 6.552-0.703 9.568-1.653l-0.258 0.070c17.501-5.679 32.954-10.333 52.038-14.708l16.105 18.153c-10.799 1.676-22.621 3.537-32.675 5.958v0.652c23.667 6.946 42.388 23.988 51.473 46.018l0.193 0.527c10.985 27.927-4.282 51.945-48.5 52.038zM108.823 274.944c-7.245-19.865-25.973-33.792-47.953-33.792-0.061 0-0.123 0-0.184 0h0.009c-21.969 0-29.51 13.591-21.969 33.42 7.442 20.163 26.234 34.396 48.428 35.001l0.072 0.002c22.156 0 28.765-15.732 21.597-34.63zM239.802 296.448l-16.849-44.777c-0.728-1.959-1.805-3.635-3.168-5.030l0.003 0.003c-4.889-5-11.703-8.1-19.241-8.1-0.076 0-0.151 0-0.227 0.001h0.012c-11.636 0-14.057 6.609-9.961 17.594l15.267 40.495h-32.768l-16.663-44.125c-8.751-23.273 3.165-32.768 24.669-32.861 18.618 0 31.744 12.288 37.236 12.288h0.652l-2.141-10.705h28.393c1.955 6.33 4.561 14.336 8.285 24.111l19.177 51.014h-32.768zM305.338 318.79c-2.607-6.889 2.42-12.474 13.405-12.474v0c0.619-0.056 1.338-0.089 2.065-0.089 9.045 0 16.926 4.98 21.052 12.348l0.063 0.122c2.42 7.075-2.42 12.474-13.591 12.474-0.565 0.047-1.223 0.074-1.887 0.074-9.039 0-16.916-4.974-21.043-12.334l-0.063-0.122zM270.522 221.137l32.675-0.093 28.393 75.311h-32.768l-28.3-75.217zM407.552 279.878c0.55 0.021 1.196 0.032 1.845 0.032 5.555 0 10.909-0.863 15.935-2.462l-0.372 0.102 11.729 17.408c-6.934 1.894-14.896 2.983-23.112 2.983-0.285 0-0.571-0.001-0.856-0.004h0.044c-39.191 0-67.119-17.873-75.404-39.936-9.309-23.645 7.168-38.633 41.239-38.726 0.712-0.016 1.551-0.025 2.392-0.025 10.027 0 19.758 1.265 29.043 3.645l-0.808-0.176 2.886 17.222c-5.585-1.542-11.998-2.428-18.618-2.428-0.36 0-0.719 0.003-1.078 0.008l0.054-0.001c-15.919 0-26.065 7.447-20.852 21.318 6.15 12.593 18.863 21.114 33.565 21.114 0.833 0 1.66-0.027 2.479-0.081l-0.111 0.006zM517.027 295.983l-29.882-24.948c-5.203-1.906-9.206-6-10.947-11.137l-0.037-0.127 24.855 68.049-33.047 1.21-41.146-108.73h32.768l8.378 23.738 10.985 7.633 13.964-30.906h40.215l-26.159 44.87 49.152 30.441h-39.377zM713.076 316.369c-7.54 5.679-21.132 8.471-41.425 8.564-1.392 0.018-3.035 0.028-4.68 0.028-14.254 0-28.331-0.754-42.195-2.224l1.726 0.148-38.54-102.4h32.489l14.057 37.236c2.918-0.422 6.288-0.663 9.714-0.663 0.447 0 0.893 0.004 1.338 0.012l-0.067-0.001c0.974-0.030 2.118-0.048 3.267-0.048 17.527 0 34.111 4.037 48.874 11.231l-0.662-0.291c10.195 5.233 18.052 13.813 22.231 24.262l0.111 0.314c1.256 2.44 1.993 5.324 1.993 8.381 0 6.408-3.237 12.059-8.165 15.409l-0.065 0.042zM686.545 291.793c-3.91-10.426-17.129-16.756-34.537-16.756-0.455-0.012-0.99-0.018-1.527-0.018-3.271 0-6.485 0.243-9.626 0.713l0.354-0.044 11.636 30.627c3.515 0.491 7.576 0.771 11.702 0.771 0.762 0 1.523-0.010 2.281-0.029l-0.112 0.002c16.57 0 23.459-5.679 19.828-15.267zM816.78 325.585c-42.636 0-79.407-21.132-91.136-52.224-11.171-29.51 5.492-50.921 48.407-50.921v0c42.449 0 78.755 18.618 91.695 52.503 10.985 28.672-4.375 50.641-48.966 50.641zM830.743 274.292c-7.242-19.502-25.692-33.147-47.328-33.147-0.281 0-0.562 0.002-0.842 0.007l0.042-0.001c-21.969 0-29.324 13.312-21.969 32.861 7.42 20.178 26.225 34.423 48.432 35.001l0.069 0.001c22.342 0 28.579-16.012 21.876-34.723zM891.625 294.4c-5.772-15.267 6.609-24.762 28.393-30.999 15.825-4.375 21.225-8.192 18.618-14.522s-12.288-11.357-27.369-11.357c-0.104 0-0.227-0.001-0.35-0.001-12.117 0-23.675 2.394-34.227 6.735l0.599-0.218-13.964-19.27c10.866-4.141 23.432-6.539 36.559-6.539 0.762 0 1.522 0.008 2.28 0.024l-0.113-0.002c39.843 0 63.953 14.708 70.47 32.023 5.585 14.801-2.7 24.297-25.786 31.185-16.943 5.306-23.831 8.192-21.318 14.801s10.985 10.054 25.228 10.054c0.37 0.007 0.807 0.010 1.244 0.010 9.595 0 18.766-1.814 27.189-5.119l-0.506 0.175 14.429 18.618c-9.459 3.399-20.374 5.364-31.747 5.364-1.177 0-2.35-0.021-3.517-0.063l0.169 0.005c-33.792 0.093-59.578-13.219-66.281-30.906zM986.95 501.807l39.005 148.945h-164.864l-43.473-40.96-63.674-238.313h93.091l8.378 27.927h-41.612l42.263 158.255h27.927l-13.871-55.855h117.015zM867.607 595.456l3.165 8.751h94.115l-19.177-65.164h-27.927l16.57 59.578zM899.724 371.479h68.794l-35.002 65.164h57.158l11.543 46.545h-153.879l51.386-111.709zM749.103 436.643l11.543 46.545h-26.159l4.655 18.618h32.582l11.078 37.236h-111.057l-11.45-37.236h23.273l-4.282-18.618h-47.011l-12.009-46.545h46.545l-18.432-65.164h83.316l7.261 27.927h-25.786l9.775 37.236h26.159zM80.989 445.952h16.849l-20.48-74.473h58.182l74.938 269.964h47.663l2.886 9.309h-107.241l-0.931-5.12-1.21-4.189h0.465l-44.311-158.255h-17.687l27.927 102.4h-56.041l-50.828-186.182h56.879l12.94 46.545zM585.449 465.873l79.779 91.788h18.432l-23.552 37.236h-114.967l4.934 18.618h70.563l2.886 9.309h-128.279l-0.465-9.309h-1.303l-16.291-55.855h111.895l-33.233-36.771-10.24 18.153h-69.911l35.747-68.422-90.484-99.142h86.016l35.188 42.263 25.135-45.894 69.353 1.769-51.2 96.256zM207.872 585.588l-10.892-37.236h49.524l-16.198-65.164h-46.545l-11.171-37.236h31.93l-3.537-6.423-38.912-68.049h69.26l27.369 55.855 27.369-55.855h123.904l19.084 74.473h17.873l-8.192-32.768 53.807 61.626-24.576 48.593-10.426-40.215h-17.036l43.66 158.255h147.642l2.886 9.309h-203.962l-2.886-9.309h1.303l-44.963-158.255h-16.849l29.231 102.4h-70.563l-11.171-37.236h20.015l-16.663-65.164h-32.861l44.591 158.255h78.662l2.979 9.309h-135.447l-0.931-5.12-17.78-60.044h-49.524zM372.55 445.952l-20.108-71.494-36.026 64.047-3.537 7.447h59.671zM905.495 691.526l-5.399 3.165-175.942-94.394c-12.639 22.12-24.949 40.786-38.293 58.635l1.056-1.477-38.726-25.321c23.826-27.084 44.788-57.646 61.833-90.564l1.19-2.526z" />
<glyph unicode="&#xe932;" glyph-name="mall-s" d="M954.182 29.091v409.6c-27.927-25.6-62.836-39.564-104.727-39.564-44.218 0-83.782 18.618-111.709 51.2-27.927-32.582-69.818-51.2-111.709-51.2s-86.109 16.291-114.036 48.873c-18.618-20.945-41.891-37.236-69.818-44.218v-444.509h439.855c39.564 0 72.145 30.255 72.145 69.818zM395.636-40.727v437.527c-41.891 0-81.455 18.618-109.382 51.2-27.927-32.582-69.818-51.2-111.709-51.2-39.564 0-76.8 16.291-104.727 39.564v-407.273c0-39.564 32.582-69.818 72.145-69.818h253.673zM279.273 285.091h46.545v-139.636h-46.545v139.636zM488.727 473.6v463.127h-141.964l-39.564-460.8c25.6-20.945 58.182-30.255 93.091-30.255 32.582-2.327 62.836 9.309 88.436 27.927zM174.545 443.345c32.582 0 60.509 9.309 86.109 27.927l39.564 465.455h-134.982c-34.909 0-65.164-23.273-72.145-55.855l-69.818-286.255v-4.655c0-81.455 67.491-146.618 151.273-146.618zM719.127 475.927l-41.891 460.8h-141.964v-463.127c25.6-18.618 55.855-30.255 88.436-30.255 37.236 0 69.818 11.636 95.418 32.582zM1000.727 589.964l-69.818 290.909c-6.982 32.582-37.236 55.855-72.145 55.855h-134.982l41.891-467.782c23.273-16.291 53.527-25.6 83.782-25.6 83.782 0 151.273 65.164 151.273 146.618z" />
<glyph unicode="&#xe933;" glyph-name="mall" d="M69.818 485.236v-456.145c0-39.564 32.582-69.818 72.145-69.818h742.4c39.564 0 72.145 30.255 72.145 69.818v456.145c27.927 25.6 46.545 65.164 46.545 104.727l-72.145 290.909c-6.982 32.582-37.236 55.855-72.145 55.855h-693.527c-34.909 0-65.164-23.273-72.145-55.855l-69.818-286.255v-4.655c0-41.891 18.618-79.127 46.545-104.727zM116.364 29.091v425.891c18.618-6.982 37.236-11.636 58.182-11.636 44.218 0 83.782 18.618 111.709 51.2 27.927-30.255 67.491-48.873 109.382-51.2v-437.527h-253.673c-13.964 0-25.6 9.309-25.6 23.273zM714.473 541.091c-18.618-30.255-51.2-48.873-88.436-48.873s-72.145 18.618-88.436 51.2v346.764h141.964l34.909-349.091zM488.727 541.091c-13.964-23.273-37.236-41.891-65.164-48.873-2.327 0-4.655 0-4.655 0-4.655 0-9.309-2.327-11.636-4.655-2.327 0-4.655 0-6.982 0-37.236 0-69.818 18.618-88.436 48.873l37.236 349.091h139.636v-344.436zM907.636 29.091c0-13.964-11.636-23.273-25.6-23.273h-439.855v444.509c27.927 6.982 51.2 23.273 69.818 44.218 27.927-32.582 69.818-51.2 111.709-51.2s83.782 18.618 111.709 51.2c27.927-32.582 69.818-51.2 111.709-51.2 20.945 0 39.564 4.655 58.182 11.636v-425.891zM886.691 869.236l67.491-281.6c-2.327-53.527-46.545-97.745-104.727-97.745-37.236 0-72.145 20.945-90.764 51.2l-34.909 349.091h134.982c13.964 0 25.6-9.309 27.927-20.945zM137.309 869.236c2.327 11.636 13.964 20.945 27.927 20.945h134.982l-37.236-349.091c-18.618-32.582-53.527-51.2-90.764-51.2-55.855 0-100.073 44.218-102.4 97.745l67.491 281.6zM302.545 331.636c-13.964 0-23.273-9.309-23.273-23.273v-139.636c0-13.964 9.309-23.273 23.273-23.273s23.273 9.309 23.273 23.273v139.636c0 13.964-9.309 23.273-23.273 23.273z" />
<glyph unicode="&#xe934;" glyph-name="mbag-s" d="M916.945 680.727h-9.309v114.036c0 65.164-53.527 118.691-121.018 118.691h-600.436c-2.327 0-69.818 4.655-118.691-39.564-30.255-27.927-44.218-67.491-44.218-116.364v0 0-702.836c0-51.2 41.891-95.418 88.436-95.418h802.909c46.545 0 83.782 41.891 83.782 95.418v114.036h-346.764c-74.473 0-116.364 74.473-116.364 139.636 0 83.782 41.891 162.909 116.364 162.909h349.091v118.691c0 51.2-37.236 90.764-83.782 90.764zM861.091 680.727h-646.982c-121.018 0-141.964 67.491-144.291 79.127 0 34.909 9.309 60.509 30.255 79.127 32.582 30.255 83.782 27.927 86.109 27.927h602.764c39.564 0 72.145-32.582 72.145-72.145v-114.036zM598.109 308.364c0-72.145 62.836-93.091 114.036-93.091h288.582v209.455h-288.582c-51.2 0-114.036-44.218-114.036-116.364zM744.727 320c0-18.618-16.291-34.909-34.909-34.909s-34.909 16.291-34.909 34.909 16.291 34.909 34.909 34.909 34.909-16.291 34.909-34.909z" />
<glyph unicode="&#xe935;" glyph-name="mbag" d="M916.945 680.727h-9.309v114.036c0 65.164-53.527 118.691-121.018 118.691h-600.436c-2.327 0-69.818 4.655-118.691-39.564-30.255-27.927-44.218-67.491-44.218-116.364v0 0-702.836c0-51.2 41.891-95.418 88.436-95.418h802.909c46.545 0 83.782 41.891 83.782 95.418v535.273c2.327 51.2-34.909 90.764-81.455 90.764zM186.182 866.909h602.764c39.564 0 72.145-32.582 72.145-72.145v-114.036h-646.982c-121.018 0-141.964 67.491-144.291 79.127 0 34.909 9.309 60.509 30.255 79.127 32.582 30.255 83.782 27.927 86.109 27.927zM954.182 238.545h-256c-48.873 0-93.091 46.545-93.091 100.073 0 51.2 39.564 86.109 93.091 86.109h256v-186.182zM698.182 471.273c-79.127 0-139.636-58.182-139.636-132.655 0 0 0 0 0 0s0 0 0 0c0-79.127 65.164-146.618 139.636-146.618h256v-137.309c0-23.273-13.964-48.873-37.236-48.873h-805.236c-23.273 0-41.891 23.273-41.891 48.873v623.709c27.927-23.273 72.145-44.218 144.291-44.218h702.836c25.6 0 37.236-23.273 37.236-44.218v-118.691h-256zM768 343.273c0-19.28-15.629-34.909-34.909-34.909s-34.909 15.629-34.909 34.909c0 19.28 15.629 34.909 34.909 34.909s34.909-15.629 34.909-34.909z" />
<glyph unicode="&#xe936;" glyph-name="msg-s" d="M486.4 19.782c67.491 0 134.982 20.945 197.818 51.2 55.855-39.564 165.236-83.782 262.982-88.436 9.309 0 18.618 4.655 20.945 13.964 4.655 9.309 0 20.945-6.982 25.6-48.873 34.909-111.709 116.364-93.091 207.127 58.182 93.091 81.455 204.8 65.164 316.509-32.582 204.8-204.8 360.727-409.6 377.018-265.309 20.945-488.727-188.509-488.727-451.491 0-249.018 202.473-451.491 451.491-451.491zM698.182 541.091c25.6 0 46.545-20.945 46.545-46.545s-20.945-46.545-46.545-46.545-46.545 20.945-46.545 46.545c0 25.6 20.945 46.545 46.545 46.545zM488.727 541.091c25.6 0 46.545-20.945 46.545-46.545s-20.945-46.545-46.545-46.545-46.545 20.945-46.545 46.545c0 25.6 20.945 46.545 46.545 46.545zM279.273 541.091c25.6 0 46.545-20.945 46.545-46.545s-20.945-46.545-46.545-46.545-46.545 20.945-46.545 46.545c0 25.6 20.945 46.545 46.545 46.545z" />
<glyph unicode="&#xe937;" glyph-name="msg" d="M416.582 22.109c83.782-9.309 167.564 6.982 244.364 41.891 46.545-32.582 137.309-79.127 235.055-90.764 2.327 0 2.327 0 4.655 0 13.964 0 25.6 6.982 32.582 20.945s2.327 30.255-9.309 41.891c-51.2 44.218-93.091 121.018-76.8 195.491 55.855 86.109 79.127 186.182 67.491 290.909v0c-23.273 209.455-193.164 379.345-404.945 400.291-134.982 13.964-269.964-34.909-365.382-130.327s-144.291-230.4-130.327-365.382c20.945-214.109 190.836-384 402.618-404.945zM176.873 759.855c86.109 86.109 204.8 128 328.145 116.364 190.836-18.618 342.109-169.891 360.727-360.727v0c9.309-93.091-11.636-186.182-62.836-262.982-2.327-2.327-2.327-4.655-2.327-6.982-20.945-86.109 18.618-165.236 65.164-218.764-79.127 18.618-155.927 58.182-188.509 83.782-4.655 2.327-9.309 4.655-13.964 4.655s-6.982 0-11.636-2.327c-69.818-37.236-148.945-51.2-230.4-44.218-188.509 18.618-342.109 172.218-360.727 363.055-11.636 121.018 30.255 242.036 116.364 328.145zM302.545 494.545c0-25.706-20.839-46.545-46.545-46.545s-46.545 20.839-46.545 46.545c0 25.706 20.839 46.545 46.545 46.545s46.545-20.839 46.545-46.545zM512 494.545c0-25.706-20.839-46.545-46.545-46.545s-46.545 20.839-46.545 46.545c0 25.706 20.839 46.545 46.545 46.545s46.545-20.839 46.545-46.545zM721.455 494.545c0-25.706-20.839-46.545-46.545-46.545s-46.545 20.839-46.545 46.545c0 25.706 20.839 46.545 46.545 46.545s46.545-20.839 46.545-46.545z" />
<glyph unicode="&#xe938;" glyph-name="mymoney-s" d="M512 948.364c-276.945 0-500.364-223.418-500.364-500.364s223.418-500.364 500.364-500.364 500.364 223.418 500.364 500.364-223.418 500.364-500.364 500.364zM721.455 401.455c13.964 0 23.273-9.309 23.273-23.273s-9.309-23.273-23.273-23.273h-186.182v-162.909c0-13.964-9.309-23.273-23.273-23.273s-23.273 9.309-23.273 23.273v162.909h-186.182c-13.964 0-23.273 9.309-23.273 23.273s9.309 23.273 23.273 23.273h186.182v116.364h-186.182c-13.964 0-23.273 9.309-23.273 23.273s9.309 23.273 23.273 23.273h158.255l-128 146.618c-9.309 9.309-6.982 23.273 2.327 32.582s23.273 6.982 32.582-2.327l146.618-167.564 167.564 167.564c9.309 9.309 23.273 9.309 32.582 0s9.309-23.273 0-32.582l-146.618-144.291h153.6c13.964 0 23.273-9.309 23.273-23.273s-9.309-23.273-23.273-23.273h-186.182v-116.364h186.182z" />
<glyph unicode="&#xe939;" glyph-name="mymoney" d="M721.455 494.545c13.964 0 23.273 9.309 23.273 23.273s-9.309 23.273-23.273 23.273h-153.6l146.618 146.618c9.309 9.309 9.309 23.273 0 32.582s-23.273 9.309-32.582 0l-169.891-167.564-146.618 167.564c-9.309 9.309-23.273 11.636-32.582 2.327s-11.636-23.273-2.327-32.582l128-146.618h-155.927c-13.964 0-23.273-9.309-23.273-23.273s9.309-23.273 23.273-23.273h186.182v-116.364h-186.182c-13.964 0-23.273-9.309-23.273-23.273s9.309-23.273 23.273-23.273h186.182v-162.909c0-13.964 9.309-23.273 23.273-23.273s23.273 9.309 23.273 23.273v162.909h186.182c13.964 0 23.273 9.309 23.273 23.273s-9.309 23.273-23.273 23.273h-186.182v116.364h186.182zM512 948.364c-276.945 0-500.364-223.418-500.364-500.364s223.418-500.364 500.364-500.364 500.364 223.418 500.364 500.364-223.418 500.364-500.364 500.364zM512-5.818c-251.345 0-453.818 202.473-453.818 453.818s202.473 453.818 453.818 453.818 453.818-202.473 453.818-453.818-202.473-453.818-453.818-453.818z" />
<glyph unicode="&#xe93a;" glyph-name="order-s" d="M186.182-40.727h651.636c51.2 0 93.091 41.891 93.091 93.091v651.636c0 51.2-41.891 93.091-93.091 93.091h-651.636c-51.2 0-93.091-41.891-93.091-93.091v-651.636c0-51.2 41.891-93.091 93.091-93.091zM814.545 192h-442.182c-13.964 0-23.273 9.309-23.273 23.273s9.309 23.273 23.273 23.273h442.182c13.964 0 23.273-9.309 23.273-23.273s-9.309-23.273-23.273-23.273zM814.545 354.909h-442.182c-13.964 0-23.273 9.309-23.273 23.273s9.309 23.273 23.273 23.273h442.182c13.964 0 23.273-9.309 23.273-23.273s-9.309-23.273-23.273-23.273zM814.545 564.364c13.964 0 23.273-9.309 23.273-23.273s-9.309-23.273-23.273-23.273h-442.182c-13.964 0-23.273 9.309-23.273 23.273s9.309 23.273 23.273 23.273h442.182zM232.727 564.364h46.545c13.964 0 23.273-9.309 23.273-23.273s-9.309-23.273-23.273-23.273h-46.545c-13.964 0-23.273 9.309-23.273 23.273s9.309 23.273 23.273 23.273zM232.727 401.455h46.545c13.964 0 23.273-9.309 23.273-23.273s-9.309-23.273-23.273-23.273h-46.545c-13.964 0-23.273 9.309-23.273 23.273s9.309 23.273 23.273 23.273zM232.727 238.545h46.545c13.964 0 23.273-9.309 23.273-23.273s-9.309-23.273-23.273-23.273h-46.545c-13.964 0-23.273 9.309-23.273 23.273s9.309 23.273 23.273 23.273zM349.091 936.727c-39.564 0-69.818-30.255-69.818-69.818v-23.273h488.727v23.273c0 39.564-30.255 69.818-69.818 69.818h-349.091z" />
<glyph unicode="&#xe93b;" glyph-name="order" d="M186.182-40.727h651.636c51.2 0 93.091 41.891 93.091 93.091v674.909c0 51.2-41.891 93.091-93.091 93.091h-69.818v46.545c0 39.564-30.255 69.818-69.818 69.818h-349.091c-39.564 0-69.818-30.255-69.818-69.818v-46.545h-93.091c-51.2 0-93.091-41.891-93.091-93.091v-674.909c0-51.2 41.891-93.091 93.091-93.091zM325.818 866.909c0 13.964 9.309 23.273 23.273 23.273h349.091c13.964 0 23.273-9.309 23.273-23.273v-46.545h-395.636v46.545zM139.636 727.273c0 25.6 20.945 46.545 46.545 46.545h651.636c25.6 0 46.545-20.945 46.545-46.545v-674.909c0-25.6-20.945-46.545-46.545-46.545h-651.636c-25.6 0-46.545 20.945-46.545 46.545v674.909zM372.364 517.818h442.182c13.964 0 23.273 9.309 23.273 23.273s-9.309 23.273-23.273 23.273h-442.182c-13.964 0-23.273-9.309-23.273-23.273s9.309-23.273 23.273-23.273zM372.364 354.909h442.182c13.964 0 23.273 9.309 23.273 23.273s-9.309 23.273-23.273 23.273h-442.182c-13.964 0-23.273-9.309-23.273-23.273s9.309-23.273 23.273-23.273zM372.364 192h442.182c13.964 0 23.273 9.309 23.273 23.273s-9.309 23.273-23.273 23.273h-442.182c-13.964 0-23.273-9.309-23.273-23.273s9.309-23.273 23.273-23.273zM232.727 517.818h46.545c13.964 0 23.273 9.309 23.273 23.273s-9.309 23.273-23.273 23.273h-46.545c-13.964 0-23.273-9.309-23.273-23.273s9.309-23.273 23.273-23.273zM232.727 354.909h46.545c13.964 0 23.273 9.309 23.273 23.273s-9.309 23.273-23.273 23.273h-46.545c-13.964 0-23.273-9.309-23.273-23.273s9.309-23.273 23.273-23.273zM232.727 192h46.545c13.964 0 23.273 9.309 23.273 23.273s-9.309 23.273-23.273 23.273h-46.545c-13.964 0-23.273-9.309-23.273-23.273s9.309-23.273 23.273-23.273z" />
<glyph unicode="&#xe93c;" glyph-name="orders-s" d="M930.909 843.636c0 51.2-41.891 93.091-93.091 93.091h-651.636c-51.2 0-93.091-41.891-93.091-93.091v-139.636h837.818v139.636zM93.091 15.127l32.582 16.291c25.6 11.636 53.527 6.982 74.473-13.964 20.945-23.273 48.873-34.909 79.127-34.909s58.182 11.636 81.455 37.236c25.6 25.6 67.491 27.927 93.091 0 20.945-23.273 48.873-34.909 79.127-34.909s58.182 6.982 81.455 30.255c11.636 13.964 27.927 16.291 46.545 16.291 0 0 0 0 0 0 16.291 0 32.582-2.327 46.545-16.291 20.945-23.273 48.873-30.255 79.127-30.255 0 0 0 0 0 0 30.255 0 58.182 13.964 81.455 37.236 13.964 13.964 30.255 18.618 41.891 20.945l20.945 2.327v612.073h-837.818v-642.327zM232.727 541.091h558.545c13.964 0 23.273-9.309 23.273-23.273s-9.309-23.273-23.273-23.273h-558.545c-13.964 0-23.273 9.309-23.273 23.273s9.309 23.273 23.273 23.273zM232.727 401.455h558.545c13.964 0 23.273-9.309 23.273-23.273s-9.309-23.273-23.273-23.273h-558.545c-13.964 0-23.273 9.309-23.273 23.273s9.309 23.273 23.273 23.273zM232.727 261.818h558.545c13.964 0 23.273-9.309 23.273-23.273s-9.309-23.273-23.273-23.273h-558.545c-13.964 0-23.273 9.309-23.273 23.273s9.309 23.273 23.273 23.273z" />
<glyph unicode="&#xe93d;" glyph-name="orders" d="M176.873 17.455c20.945-23.273 48.873-34.909 79.127-34.909s58.182 11.636 81.455 37.236c25.6 25.6 67.491 27.927 93.091 0 20.945-23.273 48.873-34.909 79.127-34.909s58.182 6.982 81.455 30.255c11.636 13.964 27.927 16.291 46.545 16.291 0 0 0 0 0 0 16.291 0 32.582-2.327 46.545-16.291 20.945-23.273 48.873-30.255 79.127-30.255 0 0 0 0 0 0 30.255 0 58.182 13.964 81.455 37.236 13.964 13.964 30.255 18.618 41.891 20.945l20.945 2.327v798.255c0 51.2-41.891 93.091-93.091 93.091h-651.636c-51.2 0-93.091-41.891-93.091-93.091v-828.509l32.582 16.291c25.6 13.964 55.855 9.309 74.473-13.964zM861.091 82.618c-18.618-4.655-37.236-16.291-51.2-32.582-11.636-13.964-27.927-20.945-46.545-20.945 0 0 0 0 0 0-16.291 0-32.582 2.327-46.545 16.291-20.945 23.273-48.873 30.255-79.127 30.255 0 0 0 0 0 0-30.255 0-58.182-6.982-81.455-30.255-25.6-25.6-67.491-25.6-93.091 2.327-20.945 23.273-48.873 37.236-79.127 37.236s-58.182-11.636-81.455-34.909c-25.6-25.6-67.491-27.927-93.091 0-20.945 23.273-51.2 34.909-79.127 34.909-4.655 0-9.309 0-13.964 0v595.782h744.727v-598.109zM116.364 843.636c0 25.6 20.945 46.545 46.545 46.545h651.636c25.6 0 46.545-20.945 46.545-46.545v-116.364h-744.727v116.364zM209.455 541.091h558.545c13.964 0 23.273 9.309 23.273 23.273s-9.309 23.273-23.273 23.273h-558.545c-13.964 0-23.273-9.309-23.273-23.273s9.309-23.273 23.273-23.273zM209.455 401.455h558.545c13.964 0 23.273 9.309 23.273 23.273s-9.309 23.273-23.273 23.273h-558.545c-13.964 0-23.273-9.309-23.273-23.273s9.309-23.273 23.273-23.273zM209.455 261.818h558.545c13.964 0 23.273 9.309 23.273 23.273s-9.309 23.273-23.273 23.273h-558.545c-13.964 0-23.273-9.309-23.273-23.273s9.309-23.273 23.273-23.273z" />
<glyph unicode="&#xe93e;" glyph-name="orderus-s" d="M977.455 820.364c0 51.2-41.891 93.091-93.091 93.091h-744.727c-51.2 0-93.091-41.891-93.091-93.091v-93.091h930.909v93.091zM139.636-17.455h395.636v349.091c0 51.2 41.891 93.091 93.091 93.091h349.091v256h-930.909v-605.091c0-51.2 41.891-93.091 93.091-93.091zM581.818 331.636v-335.127l381.673 381.673h-335.127c-25.6 0-46.545-20.945-46.545-46.545z" />
<glyph unicode="&#xe93f;" glyph-name="orderus" d="M139.636-17.455h428.218l6.982 6.982c0 0 0 0 0 0l395.636 395.636c0 0 0 0 0 0l6.982 6.982v428.218c0 51.2-41.891 93.091-93.091 93.091h-744.727c-51.2 0-93.091-41.891-93.091-93.091v-744.727c0-51.2 41.891-93.091 93.091-93.091zM93.091 75.636v605.091h837.818v-256h-302.545c-51.2 0-93.091-41.891-93.091-93.091v-302.545h-395.636c-25.6 0-46.545 20.945-46.545 46.545zM898.327 378.182l-316.509-316.509v269.964c0 25.6 20.945 46.545 46.545 46.545h269.964zM93.091 820.364c0 25.6 20.945 46.545 46.545 46.545h744.727c25.6 0 46.545-20.945 46.545-46.545v-93.091h-837.818v93.091z" />
<glyph unicode="&#xe940;" glyph-name="pcard" d="M232.727 680.727c-39.564 0-69.818-30.255-69.818-69.818v-349.091c0-39.564 30.255-69.818 69.818-69.818h558.545c39.564 0 69.818 30.255 69.818 69.818v349.091c0 39.564-30.255 69.818-69.818 69.818h-558.545zM814.545 261.818c0-13.964-9.309-23.273-23.273-23.273h-558.545c-13.964 0-23.273 9.309-23.273 23.273v186.182h605.091v-186.182zM814.545 494.545h-605.091v46.545h605.091v-46.545zM814.545 610.909v-23.273h-605.091v23.273c0 13.964 9.309 23.273 23.273 23.273h558.545c13.964 0 23.273-9.309 23.273-23.273zM302.545 378.182h116.364v-46.545h-116.364v46.545zM512 948.364c-276.945 0-500.364-223.418-500.364-500.364s223.418-500.364 500.364-500.364 500.364 223.418 500.364 500.364-223.418 500.364-500.364 500.364zM512-5.818c-251.345 0-453.818 202.473-453.818 453.818s202.473 453.818 453.818 453.818 453.818-202.473 453.818-453.818-202.473-453.818-453.818-453.818z" />
<glyph unicode="&#xe941;" glyph-name="pcoup" d="M512 948.364c-276.945 0-500.364-223.418-500.364-500.364s223.418-500.364 500.364-500.364 500.364 223.418 500.364 500.364-223.418 500.364-500.364 500.364zM512-5.818c-251.345 0-453.818 202.473-453.818 453.818s202.473 453.818 453.818 453.818 453.818-202.473 453.818-453.818-202.473-453.818-453.818-453.818zM414.255 659.782c-13.964 44.218-67.491 83.782-116.364 97.745-51.2 16.291-97.745-2.327-121.018-48.873-30.255-55.855-23.273-116.364 18.618-165.236 16.291-18.618 37.236-34.909 58.182-46.545l-16.291-116.364 321.164-321.164c13.964-13.964 32.582-20.945 48.873-20.945 18.618 0 34.909 6.982 48.873 20.945l197.818 197.818c13.964 13.964 20.945 30.255 20.945 48.873s-6.982 37.236-20.945 48.873l-321.164 321.164-118.691-16.291zM230.4 576c-30.255 34.909-34.909 72.145-11.636 111.709 13.964 25.6 37.236 34.909 69.818 25.6 37.236-9.309 67.491-37.236 79.127-60.509l-93.091-13.964-13.964-93.091c-11.636 9.309-23.273 18.618-30.255 30.255zM828.509 306.036c0-6.982-2.327-11.636-6.982-16.291l-197.818-197.818c-9.309-9.309-23.273-9.309-32.582 0l-304.873 304.873 11.636 81.455c13.964-4.655 25.6-6.982 37.236-6.982 2.327-18.618 11.636-34.909 25.6-48.873 18.618-18.618 41.891-27.927 65.164-27.927s46.545 9.309 65.164 27.927c37.236 37.236 37.236 95.418 0 132.655-34.909 34.909-95.418 34.909-132.655 0-11.636-11.636-18.618-23.273-23.273-37.236-9.309 0-20.945 2.327-34.909 6.982l9.309 74.473 202.473 27.927 304.873-304.873c9.309-4.655 11.636-9.309 11.636-16.291zM393.309 520.145c9.309 9.309 20.945 13.964 32.582 13.964s23.273-4.655 32.582-13.964c18.618-18.618 18.618-46.545 0-65.164s-46.545-18.618-65.164 0c-18.618 18.618-18.618 46.545 0 65.164zM551.564 261.818c6.982 0 11.636 2.327 16.291 6.982l90.764 90.764c9.309 9.309 9.309 23.273 0 32.582s-23.273 9.309-32.582 0l-90.764-90.764c-9.309-9.309-9.309-23.273 0-32.582 4.655-4.655 9.309-6.982 16.291-6.982zM605.091 198.982c4.655-4.655 11.636-6.982 16.291-6.982s11.636 2.327 16.291 6.982l90.764 90.764c9.309 9.309 9.309 23.273 0 32.582s-23.273 9.309-32.582 0l-90.764-90.764c-9.309-9.309-9.309-23.273 0-32.582z" />
<glyph unicode="&#xe942;" glyph-name="pig-s" d="M751.709 734.255c6.982 100.073-65.164 186.182-165.236 197.818-102.4 11.636-195.491-60.509-207.127-162.909 0-4.655 0-6.982 0-11.636 179.2 46.545 297.891 18.618 372.364-23.273zM998.4 506.182c-13.964 0-23.273-11.636-20.945-25.6 0-11.636-2.327-20.945-11.636-27.927-11.636-11.636-30.255-16.291-37.236-16.291 0 0 0 0 0 0-16.291 102.4-72.145 190.836-153.6 244.364-76.8 48.873-216.436 93.091-446.836 20.945-86.109 9.309-158.255 41.891-158.255 41.891l-27.927 11.636-4.655-25.6c0-4.655-25.6-104.727 34.909-174.545-30.255-39.564-90.764-107.055-148.945-107.055h-23.273v-202.473l6.982-6.982c2.327-2.327 41.891-44.218 95.418-86.109 32.582 11.636 109.382 48.873 132.655 116.364 4.655 11.636 16.291 18.618 30.255 13.964 11.636-4.655 18.618-16.291 13.964-30.255-23.273-69.818-86.109-109.382-132.655-132.655 34.909-23.273 72.145-41.891 109.382-48.873v-134.982h209.455v93.091h153.6l2.327-93.091h216.436v114.036c25.6 27.927 111.709 139.636 95.418 339.782 18.618 0 44.218 9.309 65.164 27.927 18.618 18.618 27.927 39.564 25.6 65.164-2.327 16.291-11.636 25.6-25.6 23.273zM337.455 401.455c-18.618 0-34.909 16.291-34.909 34.909s16.291 34.909 34.909 34.909 34.909-16.291 34.909-34.909-16.291-34.909-34.909-34.909z" />
<glyph unicode="&#xe943;" glyph-name="pig" d="M335.127 448c-4.655-4.655-6.982-9.309-6.982-16.291s2.327-11.636 6.982-16.291c4.655-4.655 9.309-6.982 16.291-6.982s11.636 2.327 16.291 6.982c4.655 4.655 6.982 9.309 6.982 16.291s-2.327 11.636-6.982 16.291-23.273 9.309-32.582 0zM1000.727 517.818c-13.964 0-23.273-11.636-23.273-23.273 0-13.964-4.655-23.273-13.964-32.582-4.655-4.655-11.636-6.982-16.291-9.309-18.618 95.418-74.473 179.2-151.273 228.073-2.327 2.327-4.655 2.327-6.982 4.655 4.655 11.636 6.982 25.6 6.982 37.236 6.982 55.855-9.309 111.709-44.218 153.6-34.909 44.218-83.782 72.145-139.636 79.127s-111.709-9.309-153.6-44.218c-44.218-34.909-72.145-83.782-79.127-139.636 0-2.327-2.327-9.309-2.327-16.291-2.327-20.945-4.655-37.236-4.655-48.873-6.982-2.327-13.964-4.655-23.273-6.982-86.109 9.309-158.255 41.891-158.255 41.891l-25.6 13.964-4.655-25.6c0-4.655-25.6-104.727 34.909-172.218-30.255-41.891-90.764-109.382-148.945-109.382h-23.273v-202.473l6.982-6.982c4.655-6.982 132.655-139.636 249.018-167.564v-134.982h209.455v93.091h153.6l2.327-93.091h216.436v114.036c27.927 30.255 114.036 144.291 93.091 356.073 13.964 4.655 30.255 11.636 41.891 23.273 18.618 18.618 27.927 41.891 27.927 69.818 0 9.309-11.636 18.618-23.273 18.618zM423.564 748.218c0 6.982 2.327 13.964 2.327 16.291 4.655 44.218 25.6 81.455 60.509 109.382s76.8 39.564 121.018 34.909c44.218-4.655 81.455-25.6 109.382-60.509s39.564-76.8 34.909-121.018c0-6.982-2.327-13.964-4.655-20.945-72.145 30.255-176.873 48.873-325.818 13.964 0 9.309 2.327 20.945 2.327 27.927zM821.527 75.636l-6.982-6.982v-86.109h-123.345l-2.327 93.091h-246.691v-93.091h-116.364v130.327l-20.945 2.327c-30.255 2.327-65.164 18.618-95.418 37.236 30.255 13.964 69.818 39.564 86.109 86.109 4.655 11.636-2.327 25.6-13.964 30.255s-25.6-2.327-30.255-13.964c-18.618-53.527-90.764-67.491-90.764-67.491s0 0 0 0c-41.891 27.927-76.8 62.836-90.764 76.8v132.655c95.418 18.618 169.891 139.636 174.545 146.618l9.309 16.291-13.964 13.964c-37.236 32.582-39.564 83.782-37.236 116.364 32.582-11.636 86.109-27.927 148.945-34.909h4.655l4.655 2.327c169.891 53.527 311.855 48.873 411.927-13.964 74.473-48.873 123.345-130.327 137.309-225.745 25.6-230.4-83.782-337.455-88.436-342.109z" />
<glyph unicode="&#xe944;" glyph-name="pweixin" d="M512 948.364c-276.945 0-500.364-223.418-500.364-500.364s223.418-500.364 500.364-500.364 500.364 223.418 500.364 500.364-223.418 500.364-500.364 500.364zM512-5.818c-251.345 0-453.818 202.473-453.818 453.818s202.473 453.818 453.818 453.818 453.818-202.473 453.818-453.818-202.473-453.818-453.818-453.818zM684.218 617.891c-32.582 97.745-128 155.927-256 155.927-160.582 0-288.582-114.036-288.582-251.345 0-44.218 13.964-86.109 37.236-123.345l-13.964-76.8c-2.327-6.982 0-13.964 4.655-18.618s11.636-6.982 18.618-6.982l100.073 6.982c41.891-20.945 88.436-32.582 132.655-32.582 2.327 0 4.655 0 6.982 0 20.945 0 34.909 6.982 46.545 13.964 44.218-51.2 114.036-86.109 193.164-86.109 2.327 0 4.655 0 4.655 0l79.127-44.218c4.655-2.327 6.982-2.327 11.636-2.327s6.982 0 11.636 2.327c6.982 4.655 11.636 9.309 11.636 18.618l6.982 58.182c69.818 37.236 114.036 104.727 114.036 179.2 2.327 109.382-95.418 200.145-221.091 207.127zM425.891 317.673c-41.891 0-83.782 9.309-123.345 30.255-4.655 2.327-6.982 2.327-11.636 2.327l-76.8-4.655 9.309 58.182c0 6.982 0 11.636-4.655 16.291-23.273 32.582-34.909 67.491-34.909 104.727 2.327 109.382 111.709 202.473 244.364 202.473 51.2 0 165.236-11.636 207.127-111.709-116.364-13.964-207.127-102.4-207.127-207.127 0-30.255 6.982-58.182 20.945-86.109-4.655-2.327-11.636-4.655-23.273-4.655zM763.345 264.145c-6.982-2.327-11.636-11.636-13.964-18.618l-4.655-34.909-53.527 27.927c-4.655 2.327-6.982 0-11.636 0 0 0 0 0 0 0l-4.655 2.327c-2.327 0-4.655 2.327-6.982 2.327-107.055 0-193.164 74.473-193.164 162.909 0 90.764 86.109 162.909 193.164 162.909s193.164-74.473 193.164-162.909c0-55.855-37.236-111.709-97.745-141.964zM635.345 454.982c0-17.994-14.587-32.582-32.582-32.582s-32.582 14.587-32.582 32.582c0 17.994 14.587 32.582 32.582 32.582s32.582-14.587 32.582-32.582zM765.673 454.982c0-17.994-14.587-32.582-32.582-32.582s-32.582 14.587-32.582 32.582c0 17.994 14.587 32.582 32.582 32.582s32.582-14.587 32.582-32.582z" />
<glyph unicode="&#xe945;" glyph-name="pzfb" d="M512 948.364c-276.945 0-500.364-223.418-500.364-500.364s223.418-500.364 500.364-500.364 500.364 223.418 500.364 500.364-223.418 500.364-500.364 500.364zM512-5.818c-251.345 0-453.818 202.473-453.818 453.818s202.473 453.818 453.818 453.818 453.818-202.473 453.818-453.818-202.473-453.818-453.818-453.818zM640 350.255c65.164 95.418 79.127 209.455 81.455 211.782 0 6.982-2.327 13.964-4.655 18.618-4.655 4.655-11.636 6.982-18.618 6.982h-162.909v69.818h209.455c13.964 0 23.273 9.309 23.273 23.273s-9.309 23.273-23.273 23.273h-209.455v69.818c0 13.964-9.309 23.273-23.273 23.273s-23.273-9.309-23.273-23.273v-69.818h-209.455c-13.964 0-23.273-9.309-23.273-23.273s9.309-23.273 23.273-23.273h209.455v-69.818h-162.909c-13.964 0-23.273-9.309-23.273-23.273s9.309-23.273 23.273-23.273h344.436c-6.982-37.236-25.6-102.4-67.491-162.909-67.491 48.873-148.945 86.109-230.4 93.091-69.818 4.655-132.655-20.945-162.909-69.818-20.945-34.909-23.273-74.473-4.655-107.055 16.291-30.255 62.836-79.127 190.836-79.127 97.745 0 167.564 41.891 216.436 97.745 93.091-74.473 160.582-158.255 160.582-158.255 4.655-6.982 11.636-9.309 18.618-9.309 4.655 0 9.309 2.327 13.964 4.655 9.309 6.982 11.636 23.273 4.655 32.582-4.655 6.982-72.145 90.764-169.891 167.564zM395.636 261.818c-76.8 0-130.327 20.945-148.945 55.855-9.309 18.618-9.309 39.564 4.655 60.509 16.291 23.273 51.2 48.873 107.055 48.873 4.655 0 9.309 0 13.964 0 72.145-4.655 141.964-39.564 204.8-83.782-44.218-46.545-102.4-81.455-181.527-81.455z" />
<glyph unicode="&#xe946;" glyph-name="redbag-s" d="M930.909 843.636c0 51.2-41.891 93.091-93.091 93.091h-651.636c-51.2 0-93.091-41.891-93.091-93.091v-153.6c53.527-72.145 151.273-128 267.636-155.927 11.636 72.145 74.473 128 151.273 128s137.309-55.855 151.273-128c118.691 25.6 214.109 83.782 267.636 155.927v153.6zM512 354.909c-76.8 0-141.964 58.182-151.273 132.655-109.382 23.273-202.473 69.818-267.636 132.655v-567.855c0-51.2 41.891-93.091 93.091-93.091h651.636c51.2 0 93.091 41.891 93.091 93.091v567.855c-65.164-62.836-158.255-109.382-267.636-132.655-9.309-74.473-74.473-132.655-151.273-132.655z" />
<glyph unicode="&#xe947;" glyph-name="redbag" d="M162.909-40.727h651.636c51.2 0 93.091 41.891 93.091 93.091v791.273c0 51.2-41.891 93.091-93.091 93.091h-651.636c-51.2 0-93.091-41.891-93.091-93.091v-791.273c0-51.2 41.891-93.091 93.091-93.091zM814.545 5.818h-651.636c-25.6 0-46.545 20.945-46.545 46.545v560.873c58.182-51.2 132.655-90.764 218.764-111.709 2.327-81.455 69.818-148.945 153.6-148.945s151.273 65.164 153.6 148.945c86.109 20.945 160.582 60.509 218.764 111.709v-560.873c0-25.6-20.945-46.545-46.545-46.545zM381.673 508.509c0 58.182 48.873 107.055 107.055 107.055s107.055-48.873 107.055-107.055-48.873-107.055-107.055-107.055-107.055 48.873-107.055 107.055zM116.364 843.636c0 25.6 20.945 46.545 46.545 46.545h651.636c25.6 0 46.545-20.945 46.545-46.545v-165.236c-53.527-60.509-132.655-104.727-225.745-130.327-18.618 65.164-76.8 111.709-146.618 111.709s-128-46.545-146.618-111.709c-93.091 23.273-172.218 69.818-225.745 130.327v165.236z" />
<glyph unicode="&#xe948;" glyph-name="redbags-s" d="M186.182-17.455h651.636c51.2 0 93.091 41.891 93.091 93.091v602.764c-116.364-41.891-265.309-62.836-418.909-62.836-146.618 0-281.6 20.945-418.909 65.164v-605.091c0-51.2 41.891-93.091 93.091-93.091zM372.364 331.636c-13.964 0-23.273 9.309-23.273 23.273s9.309 23.273 23.273 23.273h90.764l-83.782 102.4c-9.309 9.309-6.982 25.6 2.327 32.582 9.309 9.309 25.6 6.982 32.582-2.327l97.745-118.691 97.745 118.691c9.309 9.309 23.273 11.636 32.582 2.327s11.636-23.273 2.327-32.582l-83.782-102.4h90.764c13.964 0 23.273-9.309 23.273-23.273s-9.309-23.273-23.273-23.273h-116.364v-69.818h116.364c13.964 0 23.273-9.309 23.273-23.273s-9.309-23.273-23.273-23.273h-116.364v-93.091c0-13.964-9.309-23.273-23.273-23.273s-23.273 9.309-23.273 23.273v93.091h-116.364c-13.964 0-23.273 9.309-23.273 23.273s9.309 23.273 23.273 23.273h116.364v69.818h-116.364zM930.909 729.6v90.764c0 51.2-41.891 93.091-93.091 93.091h-651.636c-51.2 0-93.091-41.891-93.091-93.091v-88.436c137.309-46.545 272.291-69.818 418.909-69.818 155.927 0 304.873 25.6 418.909 67.491z" />
<glyph unicode="&#xe949;" glyph-name="redbags" d="M186.182-17.455h651.636c51.2 0 93.091 41.891 93.091 93.091v744.727c0 51.2-41.891 93.091-93.091 93.091h-651.636c-51.2 0-93.091-41.891-93.091-93.091v-744.727c0-51.2 41.891-93.091 93.091-93.091zM837.818 29.091h-651.636c-25.6 0-46.545 20.945-46.545 46.545v642.327c107.055-39.564 237.382-60.509 372.364-60.509s265.309 20.945 372.364 60.509v-642.327c0-25.6-20.945-46.545-46.545-46.545zM139.636 820.364c0 25.6 20.945 46.545 46.545 46.545h651.636c25.6 0 46.545-20.945 46.545-46.545v-53.527c-104.727-39.564-235.055-62.836-372.364-62.836s-267.636 23.273-372.364 62.836v53.527zM651.636 378.182c13.964 0 23.273 9.309 23.273 23.273s-9.309 23.273-23.273 23.273h-90.764l83.782 102.4c9.309 9.309 6.982 25.6-2.327 32.582-9.309 9.309-25.6 6.982-32.582-2.327l-97.745-118.691-97.745 118.691c-9.309 9.309-23.273 11.636-32.582 2.327s-11.636-23.273-2.327-32.582l83.782-102.4h-90.764c-13.964 0-23.273-9.309-23.273-23.273s9.309-23.273 23.273-23.273h116.364v-69.818h-116.364c-13.964 0-23.273-9.309-23.273-23.273s9.309-23.273 23.273-23.273h116.364v-93.091c0-13.964 9.309-23.273 23.273-23.273s23.273 9.309 23.273 23.273v93.091h116.364c13.964 0 23.273 9.309 23.273 23.273s-9.309 23.273-23.273 23.273h-116.364v69.818h116.364z" />
<glyph unicode="&#xe94a;" glyph-name="sbag-s" d="M116.364 192h791.273v418.909c0 39.564-30.255 69.818-67.491 69.818h-118.691v46.545c0 116.364-93.091 209.455-209.455 209.455s-209.455-93.091-209.455-209.455v-46.545h-118.691c-37.236 0-67.491-30.255-67.491-69.818v-418.909zM349.091 727.273c0 90.764 72.145 162.909 162.909 162.909s162.909-72.145 162.909-162.909v-46.545h-325.818v46.545zM116.364 29.091c0-39.564 30.255-69.818 67.491-69.818h653.964c37.236 0 67.491 30.255 67.491 69.818v116.364h-788.945v-116.364z" />
<glyph unicode="&#xe94b;" glyph-name="sbag" d="M512 936.727c-116.364 0-209.455-93.091-209.455-209.455v-46.545h-118.691c-37.236 0-67.491-30.255-67.491-69.818v-581.818c0-39.564 30.255-69.818 67.491-69.818h653.964c37.236 0 67.491 30.255 67.491 69.818v581.818c0 39.564-30.255 69.818-67.491 69.818h-116.364v46.545c0 116.364-93.091 209.455-209.455 209.455zM349.091 727.273c0 90.764 72.145 162.909 162.909 162.909s162.909-72.145 162.909-162.909v-46.545h-325.818v46.545zM840.145 5.818h-656.291c-11.636 0-20.945 9.309-20.945 23.273v93.091h698.182v-93.091c0-13.964-9.309-23.273-20.945-23.273zM840.145 634.182c11.636 0 20.945-9.309 20.945-23.273v-442.182h-698.182v442.182c0 13.964 9.309 23.273 20.945 23.273h118.691v-93.091c0-13.964 9.309-23.273 23.273-23.273s23.273 9.309 23.273 23.273v93.091h325.818v-93.091c0-13.964 9.309-23.273 23.273-23.273s23.273 9.309 23.273 23.273v93.091h118.691z" />
<glyph unicode="&#xe94c;" glyph-name="small-s" d="M488.727 913.455h-128l-58.182-256h186.182zM535.273 913.455v-256h186.182l-79.127 256zM256 662.109l55.855 251.345h-118.691c-16.291 0-32.582-9.309-41.891-23.273l-130.327-221.091v-11.636h235.055v4.655zM830.836 913.455h-141.964l79.127-256h232.727v6.982l-128 225.745c-9.309 13.964-25.6 23.273-41.891 23.273zM174.545 452.655c30.255 0 58.182 9.309 81.455 25.6v132.655h-232.727v-4.655c0-83.782 67.491-153.6 151.273-153.6zM768 478.255c23.273-16.291 51.2-23.273 81.455-23.273 83.782 0 151.273 67.491 151.273 151.273v4.655h-232.727v-132.655zM302.545 489.891c27.927-23.273 60.509-34.909 97.745-34.909 32.582 0 62.836 11.636 88.436 30.255v125.673h-186.182v-121.018zM535.273 482.909c25.6-18.618 55.855-30.255 88.436-30.255 34.909 0 69.818 13.964 97.745 34.909v123.345h-186.182v-128zM849.455 382.836c-34.909 0-69.818 16.291-95.418 44.218l-16.291 18.618-16.291-18.618c-23.273-27.927-58.182-44.218-95.418-44.218s-69.818 16.291-95.418 44.218l-18.618 18.618-16.291-18.618c-23.273-27.927-58.182-44.218-95.418-44.218-34.909 0-67.491 13.964-90.764 39.564l-6.982 6.982h-27.927l-6.982-6.982c-23.273-25.6-55.855-39.564-90.764-39.564-32.582 0-62.836 11.636-86.109 34.909l-11.636 6.982h-32.582v-418.909c0-25.6 20.945-46.545 46.545-46.545h837.818c25.6 0 46.545 20.945 46.545 46.545v458.473l-39.564-46.545c-18.618-20.945-53.527-34.909-88.436-34.909zM651.636 5.818h-279.273v204.8c0 34.909 39.564 27.927 72.145 27.927h165.236c39.564 0 41.891 0 41.891-37.236v-195.491z" />
<glyph unicode="&#xe94d;" glyph-name="small" d="M1000.727 673.745c2.327 6.982 2.327 11.636-2.327 18.618l-118.691 209.455c-13.964 20.945-37.236 34.909-60.509 34.909h-612.073c-25.6 0-48.873-13.964-60.509-34.909l-118.691-209.455c-4.655-4.655-4.655-9.309-4.655-11.636v-62.836c0-30.255 9.309-58.182 23.273-81.455v-484.073c0-39.564 30.255-69.818 69.818-69.818h791.273c39.564 0 69.818 30.255 69.818 69.818v484.073c13.964 23.273 23.273 51.2 23.273 81.455v55.855zM954.182 617.891c0-58.182-46.545-104.727-104.727-104.727-37.236 0-69.818 20.945-90.764 53.527l-11.636 93.091h207.127v-41.891zM69.818 617.891v39.564h186.182v-93.091c0-4.655 0-6.982 2.327-9.309-20.945-25.6-51.2-41.891-83.782-41.891-58.182-2.327-104.727 46.545-104.727 104.727zM302.545 657.455h186.182v-93.091c0 0 0 0 0-2.327-18.618-32.582-53.527-51.2-88.436-51.2-37.236 0-74.473 20.945-93.091 55.855l-4.655 9.309v81.455zM488.727 890.182v-186.182h-183.855l62.836 186.182h121.018zM651.636 885.527l39.564-181.527h-155.927v186.182h116.364c0-2.327 0-2.327 0-4.655zM535.273 564.364v93.091h165.236l11.636-95.418c-18.618-30.255-53.527-48.873-88.436-48.873-34.909-2.327-69.818 18.618-88.436 51.2 0 0 0 0 0 0zM837.818 878.545l100.073-174.545h-197.818l-41.891 186.182h118.691c9.309 0 18.618-4.655 20.945-11.636zM186.182 878.545c4.655 6.982 11.636 11.636 20.945 11.636h109.382l-60.509-181.527v-4.655h-169.891l100.073 174.545zM372.364 29.091v239.709c0 11.636 2.327 16.291 2.327 16.291s0 0 0 0h258.327c11.636 0 18.618-13.964 18.618-25.6v-230.4h-279.273zM907.636 29.091h-209.455v230.4c0 39.564-27.927 72.145-65.164 72.145h-256c-23.273 0-51.2-16.291-51.2-62.836v-239.709h-209.455c-13.964 0-23.273 9.309-23.273 23.273v437.527c23.273-16.291 51.2-23.273 81.455-23.273 44.218 0 83.782 18.618 111.709 51.2 27.927-32.582 69.818-51.2 111.709-51.2s83.782 18.618 111.709 51.2c27.927-32.582 69.818-51.2 111.709-51.2 44.218 0 83.782 18.618 111.709 51.2 27.927-32.582 69.818-51.2 111.709-51.2 30.255 0 58.182 9.309 81.455 23.273v-437.527c4.655-13.964-4.655-23.273-18.618-23.273z" />
<glyph unicode="&#xe94e;" glyph-name="sorder-s" d="M835.491 368.873c-79.127 79.127-209.455 79.127-288.582 0-39.564-39.564-60.509-90.764-60.509-144.291s20.945-107.055 60.509-144.291c39.564-39.564 93.091-60.509 144.291-60.509 44.218 0 90.764 13.964 128 44.218l102.4-102.4c4.655-4.655 11.636-6.982 16.291-6.982s11.636 2.327 16.291 6.982c9.309 9.309 9.309 23.273 0 32.582l-102.4 102.4c65.164 81.455 58.182 197.818-16.291 272.291zM777.309 936.727h-628.364c-48.873 0-79.127-32.582-79.127-81.455v-737.745c0-51.2 32.582-88.436 79.127-88.436h370.036c-4.655 2.327-6.982 6.982-11.636 9.309-48.873 48.873-76.8 116.364-76.8 186.182s27.927 137.309 76.8 186.182c48.873 48.873 116.364 76.8 186.182 76.8 62.836 0 121.018-20.945 169.891-62.836v430.545c-2.327 46.545-37.236 81.455-86.109 81.455zM302.545 308.364h-116.364c-13.964 0-23.273 9.309-23.273 23.273s9.309 23.273 23.273 23.273h116.364c13.964 0 23.273-9.309 23.273-23.273s-9.309-23.273-23.273-23.273zM372.364 494.545h-186.182c-13.964 0-23.273 9.309-23.273 23.273s9.309 23.273 23.273 23.273h186.182c13.964 0 23.273-9.309 23.273-23.273s-9.309-23.273-23.273-23.273zM581.818 680.727h-395.636c-13.964 0-23.273 9.309-23.273 23.273s9.309 23.273 23.273 23.273h395.636c13.964 0 23.273-9.309 23.273-23.273s-9.309-23.273-23.273-23.273z" />
<glyph unicode="&#xe94f;" glyph-name="sorder" d="M279.273 704h395.636c13.964 0 23.273 9.309 23.273 23.273s-9.309 23.273-23.273 23.273h-395.636c-13.964 0-23.273-9.309-23.273-23.273s9.309-23.273 23.273-23.273zM465.455 541.091h-186.182c-13.964 0-23.273-9.309-23.273-23.273s9.309-23.273 23.273-23.273h186.182c13.964 0 23.273 9.309 23.273 23.273s-9.309 23.273-23.273 23.273zM395.636 354.909h-116.364c-13.964 0-23.273-9.309-23.273-23.273s9.309-23.273 23.273-23.273h116.364c13.964 0 23.273 9.309 23.273 23.273s-9.309 23.273-23.273 23.273zM914.618 84.945c67.491 83.782 62.836 202.473-9.309 281.6 2.327 2.327 2.327 6.982 2.327 11.636v472.436c0 51.2-30.255 86.109-76.8 86.109h-628.364c-48.873 0-86.109-37.236-86.109-86.109v-737.745c0-46.545 37.236-83.782 86.109-83.782h444.509c30.255-16.291 65.164-25.6 100.073-25.6 48.873 0 95.418 16.291 134.982 46.545l95.418-95.418c4.655-4.655 11.636-6.982 16.291-6.982s11.636 2.327 16.291 6.982c9.309 9.309 9.309 23.273 0 32.582l-95.418 97.745zM162.909 112.873v737.745c0 23.273 16.291 39.564 39.564 39.564h628.364c25.6 0 30.255-23.273 30.255-39.564v-449.164c-83.782 53.527-195.491 41.891-267.636-30.255-81.455-81.455-83.782-214.109-6.982-297.891h-384c-23.273 2.327-39.564 18.618-39.564 39.564zM626.036 101.236c-65.164 65.164-65.164 174.545 0 239.709 32.582 32.582 76.8 48.873 121.018 48.873s86.109-16.291 121.018-48.873c65.164-65.164 65.164-174.545 0-239.709-67.491-67.491-176.873-67.491-242.036 0z" />
<glyph unicode="&#xe950;" glyph-name="star-s" d="M646.982 592.291l-134.982 314.182-134.982-314.182-342.109-32.582 258.327-225.745-74.473-332.8 293.236 174.545 293.236-174.545-74.473 332.8 258.327 225.745z" />
</font>
</defs>
</svg>
