<?xml version="1.0" encoding="UTF-8" standalone="no"?>
<svg width="44px" height="44px" viewBox="0 0 44 44" version="1.1" xmlns="http://www.w3.org/2000/svg" xmlns:xlink="http://www.w3.org/1999/xlink">
    <!-- Generator: Sketch 44.1 (41455) - http://www.bohemiancoding.com/sketch -->
    <title>icon/diamond</title>
    <desc>Created with Sketch.</desc>
    <defs></defs>
    <g id="Symbol" stroke="none" stroke-width="1" fill="none" fill-rule="evenodd">
        <g id="icon/diamond" fill="#626262">
            <path d="M23.7399464,5 L33,5 L32.508065,5.08944272 L34.242174,14.627042 L23.7399464,5 Z M22.2600536,5 L11.5,14.8633825 L11.5,5 L11.25,5 L22.2600536,5 Z M12.2854009,15.5 L23,5.67828419 L33.7145991,15.5 L12.2854009,15.5 Z M33.5946989,5.47575914 L42.5455317,12.6364254 L35.3848655,15.3216752 L33.5946989,5.47575914 Z M10.5,5.4 L10.5,15.3279847 L1.47455939,12.6203525 L10.5,5.4 Z M22.0333844,39.9570772 L35.345812,16.4043207 L42.4136468,13.7538827 L22.0333844,39.9570772 Z M21.8026961,39.7463236 L1.52958076,13.6808896 L10.6443969,16.4153344 L21.8026961,39.7463236 Z M11.7933717,16.5 L34.1430502,16.5 L22.0369744,37.9184419 L11.7933717,16.5 Z" id="Combined-Shape"></path>
        </g>
    </g>
</svg>