<?xml version="1.0" encoding="UTF-8" standalone="no"?>
<svg width="44px" height="44px" viewBox="0 0 44 44" version="1.1" xmlns="http://www.w3.org/2000/svg" xmlns:xlink="http://www.w3.org/1999/xlink">
    <!-- Generator: Sketch 44.1 (41455) - http://www.bohemiancoding.com/sketch -->
    <title>icon/errores</title>
    <desc>Created with Sketch.</desc>
    <defs></defs>
    <g id="Symbol" stroke="none" stroke-width="1" fill="none" fill-rule="evenodd">
        <g id="icon/errores" fill="#626262">
            <path d="M24.6816575,5.0143417 L42.9585465,36.3461514 L42.9585465,36.3461514 C43.7933873,37.7773072 43.3099786,39.6142603 41.8788229,40.4491012 C41.4200147,40.7167393 40.8983737,40.8577645 40.3672098,40.8577645 L3.81343179,40.8577645 L3.81343179,40.8577645 C2.15657754,40.8577645 0.813431789,39.5146187 0.813431789,37.8577645 C0.813431789,37.3266006 0.954456982,36.8049596 1.22209509,36.3461514 L19.4989841,5.0143417 L19.4989841,5.0143417 C20.3338249,3.58318596 22.1707781,3.09977722 23.6019339,3.93461807 C24.0489448,4.19537443 24.4209011,4.56733079 24.6816575,5.0143417 L24.6816575,5.0143417 Z M22,12 C21.9413558,12 21.8827259,12.0018304 21.8241959,12.0054885 C20.2706934,12.1025824 19.090041,13.4406552 19.1871349,14.9941577 L19.1871349,14.9941577 L19.8752434,26.0038948 C19.9453688,27.1259008 20.8758048,28 22,28 C23.1241952,28 24.0546312,27.1259008 24.1247566,26.0038948 L24.8128651,14.9941577 C24.8165233,14.9356278 24.8183537,14.8769979 24.8183537,14.8183537 C24.8183537,13.2618199 23.5565337,12 22,12 Z M22,30 C20.3431458,30 19,31.3431458 19,33 C19,34.6568542 20.3431458,36 22,36 C23.6568542,36 25,34.6568542 25,33 C25,31.3431458 23.6568542,30 22,30 Z" id="Combined-Shape"></path>
        </g>
    </g>
</svg>