<?xml version="1.0" encoding="UTF-8" standalone="no"?>
<svg width="44px" height="44px" viewBox="0 0 44 44" version="1.1" xmlns="http://www.w3.org/2000/svg" xmlns:xlink="http://www.w3.org/1999/xlink">
    <!-- Generator: Sketch 44.1 (41455) - http://www.bohemiancoding.com/sketch -->
    <title>icon/errors</title>
    <desc>Created with Sketch.</desc>
    <defs></defs>
    <g id="Symbol" stroke="none" stroke-width="1" fill="none" fill-rule="evenodd">
        <g id="icon/errors" fill="#626262">
            <path d="M22,43 C10.4020203,43 1,33.5979797 1,22 C1,10.4020203 10.4020203,1 22,1 C33.5979797,1 43,10.4020203 43,22 C43,33.5979797 33.5979797,43 22,43 Z M21.9949604,8 L21.9949604,8 C21.9426274,8 21.8903045,8.00144986 21.8380518,8.00434791 C20.2755785,8.09100616 19.079194,9.42789142 19.1658523,10.9903647 L19.887752,24.0064235 C19.9497833,25.1248658 20.8747993,26 21.9949604,26 C23.1151216,26 24.0401376,25.1248658 24.1021689,24.0064235 L24.1021689,24.0064235 L24.8240686,10.9903647 C24.8269666,10.938112 24.8284165,10.8857891 24.8284165,10.8334561 C24.8284165,9.26858149 23.559835,8 21.9949604,8 L21.9949604,8 Z M21.9949604,29 L21.9949604,29 C20.3408895,29 19,30.3408895 19,31.9949604 L19,31.9959638 C19,33.6500348 20.3408895,34.9909242 21.9949604,34.9909242 C23.6490314,34.9909242 24.9899209,33.6500348 24.9899209,31.9959638 L24.9899209,31.9949604 C24.9899209,30.3408895 23.6490314,29 21.9949604,29 L21.9949604,29 Z" id="Combined-Shape"></path>
        </g>
    </g>
</svg>