<?xml version="1.0" encoding="UTF-8" standalone="no"?>
<svg width="44px" height="44px" viewBox="0 0 44 44" version="1.1" xmlns="http://www.w3.org/2000/svg" xmlns:xlink="http://www.w3.org/1999/xlink">
    <!-- Generator: Sketch 44.1 (41455) - http://www.bohemiancoding.com/sketch -->
    <title>icon/fav</title>
    <desc>Created with Sketch.</desc>
    <defs></defs>
    <g id="Symbol" stroke="none" stroke-width="1" fill="none" fill-rule="evenodd">
        <g id="icon/fav" fill="#626262">
            <path d="M1,15 C1,8.372583 6.372583,3 13,3 C16.5840776,3 19.8011666,4.57126466 22,7.06252681 C24.1988334,4.57126466 27.4159224,3 31,3 C37.627417,3 43,8.372583 43,15 C43,18.0734177 41.8445857,20.876974 39.944426,23 L23.4517806,40.462819 L23.4517806,40.462819 C22.6933576,41.2658559 21.4275442,41.3020227 20.6245072,40.5435997 C20.597565,40.5181543 20.5713352,40.4919649 20.5458482,40.465062 L4,23 C2.15541427,20.876974 1,18.0734177 1,15 Z M21.944426,23 L22.055574,23 C22.0369779,22.9792228 22.0184531,22.9583804 22,22.9374732 C21.9815469,22.9583804 21.9630221,22.9792228 21.944426,23 L21.944426,23 Z" id="Combined-Shape"></path>
        </g>
    </g>
</svg>