<?xml version="1.0" encoding="UTF-8" standalone="no"?>
<svg width="44px" height="44px" viewBox="0 0 44 44" version="1.1" xmlns="http://www.w3.org/2000/svg" xmlns:xlink="http://www.w3.org/1999/xlink">
    <!-- Generator: Sketch 44.1 (41455) - http://www.bohemiancoding.com/sketch -->
    <title>icon/gift</title>
    <desc>Created with Sketch.</desc>
    <defs></defs>
    <g id="Symbol" stroke="none" stroke-width="1" fill="none" fill-rule="evenodd">
        <g id="icon/gift" fill="#626262">
            <path d="M23,11 L43,11 L43,15.6206897 L40,15.6206897 L40,39 C40,40.1045695 39.1045695,41 38,41 L24,41 L24,17.9310345 L20,17.9310345 L20,41 L6,41 C4.8954305,41 4,40.1045695 4,39 L4,17.9310345 L40,17.9310345 L40,15.6206897 L1,15.6206897 L1,11 L21,11 L21,7.22369074 C19.8997378,6.10088402 18.4994679,5.5 17,5.5 C13.9624339,5.5 11.5,7.96243388 11.5,11 L8.5,11 C8.5,6.30557963 12.3055796,2.5 17,2.5 C18.7543357,2.5 20.4257962,3.03517676 21.8234725,4 L22.1765275,4 C23.5742038,3.03517676 25.2456643,2.5 27,2.5 C31.6944204,2.5 35.5,6.30557963 35.5,11 L32.5,11 C32.5,7.96243388 30.0375661,5.5 27,5.5 C25.5005321,5.5 24.1002622,6.10088402 23.0713614,7.15086714 L23,11 Z" id="Combined-Shape"></path>
        </g>
    </g>
</svg>