<?xml version="1.0" encoding="UTF-8" standalone="no"?>
<svg width="44px" height="44px" viewBox="0 0 44 44" version="1.1" xmlns="http://www.w3.org/2000/svg" xmlns:xlink="http://www.w3.org/1999/xlink">
    <!-- Generator: Sketch 44.1 (41455) - http://www.bohemiancoding.com/sketch -->
    <title>icon/help</title>
    <desc>Created with Sketch.</desc>
    <defs></defs>
    <g id="Symbol" stroke="none" stroke-width="1" fill="none" fill-rule="evenodd">
        <g id="icon/help" fill="#626262">
            <path d="M22,42 C10.954305,42 2,33.045695 2,22 C2,10.954305 10.954305,2 22,2 C33.045695,2 42,10.954305 42,22 C42,33.045695 33.045695,42 22,42 Z M20,28.4512051 L24,28.4512002 L24,25.25 C24,24.8679565 24.1372543,24.7190374 25.1731473,24.1529959 C25.0503094,24.220118 25.7799186,23.8247408 25.9805225,23.7119011 C28.6274486,22.2230051 30,20.3643418 30,17 C30,12.581722 26.418278,9 22,9 C17.581722,9 14,12.581722 14,17 L14,19 L18,19 L18,17 C18,14.790861 19.790861,13 22,13 C24.209139,13 26,14.790861 26,17 C26,18.7294082 25.5172882,19.3830804 24.0194775,20.2255989 C23.8511986,20.3202558 23.1602865,20.694663 23.2551043,20.6428519 C21.0621939,21.8411207 20,22.9935871 20,25.25 L20,28.4512002 C24,28.4511629 24,28.4511629 24,28.451076 L20,28.4512051 Z M22,35 C23.1045695,35 24,34.1045695 24,33 C24,31.8954305 23.1045695,31 22,31 C20.8954305,31 20,31.8954305 20,33 C20,34.1045695 20.8954305,35 22,35 Z" id="Combined-Shape"></path>
        </g>
    </g>
</svg>