<?xml version="1.0" encoding="UTF-8" standalone="no"?>
<svg width="44px" height="44px" viewBox="0 0 44 44" version="1.1" xmlns="http://www.w3.org/2000/svg" xmlns:xlink="http://www.w3.org/1999/xlink">
    <!-- Generator: Sketch 44.1 (41455) - http://www.bohemiancoding.com/sketch -->
    <title>icon/levels</title>
    <desc>Created with Sketch.</desc>
    <defs></defs>
    <g id="Symbol" stroke="none" stroke-width="1" fill="none" fill-rule="evenodd">
        <g id="icon/levels" fill="#626262">
            <path d="M11,5 L33,5 L43,13 L22,40 L1,13 L11,5 Z M32.6000004,13.893871 L32.6000004,12 L25.3235486,12 L25.3235486,13.893871 L26.5861293,13.893871 C27.5386072,13.893871 28.014839,14.1929003 28.014839,14.7909678 C28.014839,14.9903236 27.9705384,15.1675262 27.8819358,15.3225807 L23.3964518,26.0877422 L18.9774195,15.0567743 C18.9109675,14.9017197 18.8777421,14.7245172 18.8777421,14.5251613 C18.8777421,14.104299 19.1989217,13.893871 19.8412905,13.893871 L21.635484,13.893871 L21.635484,12 L12,12 L12,13.893871 C13.2182857,13.893871 13.9935468,14.2815015 14.3258065,15.0567743 L20.0406453,28.9119358 L24.3267744,28.9119358 L30.0416132,15.0235484 C30.1966678,14.6469874 30.5012346,14.3645709 30.9553229,14.1762904 C31.4094112,13.9880098 31.9576316,13.893871 32.6000004,13.893871 Z" id="Combined-Shape"></path>
        </g>
    </g>
</svg>