<?xml version="1.0" encoding="UTF-8" standalone="no"?>
<svg width="44px" height="44px" viewBox="0 0 44 44" version="1.1" xmlns="http://www.w3.org/2000/svg" xmlns:xlink="http://www.w3.org/1999/xlink">
    <!-- Generator: Sketch 44.1 (41455) - http://www.bohemiancoding.com/sketch -->
    <title>icon/moneyr</title>
    <desc>Created with Sketch.</desc>
    <defs></defs>
    <g id="Symbol" stroke="none" stroke-width="1" fill="none" fill-rule="evenodd">
        <g id="icon/moneyr" fill="#626262">
            <path d="M24,20 L32,20 L32,17 L25.2781746,17 L30.3033009,11.9748737 L28.1819805,9.85355339 L22,16.0355339 L15.8180195,9.85355339 L13.6966991,11.9748737 L18.7218254,17 L12,17 L12,20 L20,20 L20,24 L12,24 L12,27 L20,27 L20,34.6568542 L24,34.6568542 L24,27 L32,27 L32,24 L24,24 L24,20 Z M22,42 C10.954305,42 2,33.045695 2,22 C2,10.954305 10.954305,2 22,2 C33.045695,2 42,10.954305 42,22 C42,33.045695 33.045695,42 22,42 Z" id="Combined-Shape"></path>
        </g>
    </g>
</svg>