<?xml version="1.0" encoding="UTF-8" standalone="no"?>
<svg width="44px" height="44px" viewBox="0 0 44 44" version="1.1" xmlns="http://www.w3.org/2000/svg" xmlns:xlink="http://www.w3.org/1999/xlink">
    <!-- Generator: Sketch 44.1 (41455) - http://www.bohemiancoding.com/sketch -->
    <title>icon/phone</title>
    <desc>Created with Sketch.</desc>
    <defs></defs>
    <g id="Symbol" stroke="none" stroke-width="1" fill="none" fill-rule="evenodd">
        <g id="icon/phone" fill="#626262">
            <path d="M11.8834587,16.3889309 L15.6136914,11.7468634 C16.892481,10.1554808 16.767655,7.85644412 15.3240828,6.41287188 L11.2964128,2.38520186 C9.73431561,0.823104688 7.2016557,0.823104688 5.63955853,2.38520186 C5.45330099,2.5714594 5.28589692,2.77565954 5.13978448,2.9948282 L3.81324062,4.98464399 C2.05153866,7.62719694 1.40925208,10.8603631 2.02713029,13.975633 C3.16090244,19.6919801 6.64137535,25.4637404 12.468549,31.2909141 C18.2957226,37.1180877 24.067483,40.5985606 29.78383,41.7323328 C32.8990999,42.350211 36.1322661,41.7079244 38.7748191,39.9462224 L40.7646349,38.6196786 C42.6027496,37.3942687 43.0994451,34.9107914 41.8740353,33.0726766 C41.7279228,32.853508 41.5605187,32.6493078 41.3742612,32.4630503 L37.3465912,28.4353803 C35.9030189,26.991808 33.6039823,26.866982 32.0125996,28.1457716 L27.7849819,31.5429644 C27.2610863,31.963952 26.5607713,32.0936576 25.9208552,31.8882201 C22.3757615,30.7501097 19.4324137,29.0102534 17.0908117,26.6686514 C14.6320062,24.2098459 12.836692,21.0875492 11.7048692,17.3017611 C11.6106557,16.9866304 11.6774307,16.6453212 11.8834587,16.3889309 Z" id="Combined-Shape"></path>
        </g>
    </g>
</svg>